<svg width="20" height="20" viewBox="0 0 20 20" fill="none" xmlns="http://www.w3.org/2000/svg">
<g clip-path="url(#clip0_1_48)">
<path d="M17.1466 6.07552V7.7329C18.3662 7.81467 19.3333 8.82082 19.3333 10.0467V13.0135C19.3333 14.2394 18.3662 15.2456 17.1466 15.3273H15.8991C14.6796 15.2456 13.7124 14.2394 13.7124 13.0135V10.0467C13.7124 8.82086 14.6796 7.81467 15.8991 7.7329V6.07552C15.8991 3.40536 12.7014 1.23303 9.99999 1.23303C7.29858 1.23303 4.10083 3.40536 4.10087 6.07552V7.7329C5.32046 7.81467 6.28759 8.82086 6.28759 10.0467V13.0135C6.28759 14.2927 5.23469 15.3333 3.94057 15.3333H3.01367C1.71951 15.3333 0.666656 14.2927 0.666656 13.0135V10.0467C0.666656 8.82086 1.63379 7.81467 2.85337 7.7329V6.07552C2.85337 2.72546 6.61076 0 9.99999 0C13.3892 0 17.1466 2.72546 17.1466 6.07552Z" fill="white"/>
<path d="M16.065 17.1267V16H17.3334V17.1267C17.3334 18.7111 15.9981 20 14.3568 20H11.9675C11.6173 20 11.3334 19.7259 11.3334 19.3878C11.3334 19.0497 11.6173 18.7757 11.9675 18.7757H14.3568C15.2987 18.7757 16.065 18.036 16.065 17.1267Z" fill="white"/>
</g>
<defs>
<clipPath id="clip0_1_48">
<rect width="20" height="20" fill="white"/>
</clipPath>
</defs>
</svg>
