<svg width="88" height="88" viewBox="0 0 88 88" fill="none" xmlns="http://www.w3.org/2000/svg">
<path d="M2.7189 85.1438C4.9064 87.3794 8.14391 88.2063 11.1627 87.3313L81.5564 66.9919C84.7414 66.1081 86.9989 63.5838 87.607 60.3813C88.2283 57.1175 86.0583 52.97 83.2233 51.2375L61.2127 37.7975C58.9552 36.415 56.0414 36.7607 54.1733 38.6332L28.9689 63.8375C27.7002 65.1544 25.6002 65.1544 24.3314 63.8375C23.0627 62.5732 23.0627 60.5125 24.3314 59.2L49.5795 33.9957C51.452 32.1232 51.802 29.2182 50.4239 26.9563L36.9752 4.86253C35.4002 2.24191 32.6877 0.750031 29.7127 0.750031C29.3627 0.750031 28.9689 0.750031 28.6189 0.798157C25.2064 1.23129 22.4939 3.55441 21.4877 6.83566L0.618896 76.7C-0.29985 79.675 0.531403 82.9125 2.7189 85.1438Z" fill="#5D12CE"/>
<path fill-rule="evenodd" clip-rule="evenodd" d="M83.2931 22.8897C84.1331 22.8897 84.9731 23.2091 85.6118 23.8522C86.8937 25.1341 86.8937 27.2078 85.6118 28.4897L79.64 34.4659C78.3581 35.7434 76.28 35.7434 74.9981 34.4659C73.7206 33.1841 73.7206 31.1059 74.9981 29.8241L80.9743 23.8522C81.6131 23.2091 82.4531 22.8897 83.2931 22.8897ZM66.8378 17.6729C67.6778 17.6729 68.5178 17.9923 69.1566 18.6354C70.4385 19.9173 70.4385 21.9911 69.1566 23.2729L63.1847 29.2492C61.9028 30.5267 59.8247 30.5267 58.5428 29.2492C57.2653 27.9673 57.2653 25.8892 58.5428 24.6073L64.5191 18.6354C65.1578 17.9923 65.9978 17.6729 66.8378 17.6729ZM65.7279 2.06295C65.0891 1.41982 64.2491 1.10045 63.4091 1.10045C62.5691 1.10045 61.7291 1.41982 61.0904 2.06295L55.1141 8.03482C53.8366 9.3167 53.8366 11.3948 55.1141 12.6767C56.396 13.9542 58.4741 13.9542 59.756 12.6767L65.7279 6.70045C67.0098 5.41857 67.0098 3.34482 65.7279 2.06295Z" fill="#5D12CE"/>
</svg>
