<svg width="24" height="24" viewBox="0 0 24 24" fill="none" xmlns="http://www.w3.org/2000/svg">
<path opacity="0.4" d="M16.34 1.99976H7.67C4.28 1.99976 2 4.37976 2 7.91976V16.0898C2 19.6198 4.28 21.9998 7.67 21.9998H16.34C19.73 21.9998 22 19.6198 22 16.0898V7.91976C22 4.37976 19.73 1.99976 16.34 1.99976" fill="#5D12CE"/>
<path d="M16.6082 14.7174L13.8906 12.0011L16.6066 9.28483C17.1291 8.76388 17.1291 7.916 16.6066 7.39505C16.0842 6.86952 15.2395 6.87105 14.717 7.39352L11.9994 10.1098L9.28184 7.39047C8.7594 6.86799 7.91312 6.87105 7.39068 7.39047C6.86977 7.91294 6.86977 8.76082 7.39068 9.28177L10.1098 12.0011L7.39679 14.7128C6.87436 15.2353 6.87436 16.0831 7.39679 16.6026C7.65801 16.8653 7.99866 16.9952 8.34084 16.9952C8.68455 16.9952 9.02521 16.8653 9.28642 16.6041L11.9994 13.8909L14.7185 16.6087C14.9798 16.8699 15.3204 16.9998 15.6626 16.9998C16.0048 16.9998 16.347 16.8684 16.6082 16.6087C17.1306 16.0862 17.1306 15.2398 16.6082 14.7174" fill="#5D12CE"/>
</svg>
