<svg width="14" height="18" viewBox="0 0 14 18" fill="none" xmlns="http://www.w3.org/2000/svg">
<path d="M3.49568 4.33684V2.74701C3.49568 2.05809 3.66303 1.53919 3.99772 1.19031C4.33676 0.841431 4.84314 0.666992 5.51687 0.666992H8.01402C8.3661 0.666992 8.68123 0.717778 8.95941 0.81935C9.2376 0.916506 9.49188 1.08653 9.72225 1.32942L13.0148 4.72767C13.2582 4.98381 13.4278 5.2532 13.5234 5.53583C13.619 5.81847 13.6668 6.16293 13.6668 6.56922V11.9481C13.6668 12.637 13.4973 13.1559 13.1583 13.5048C12.8236 13.8537 12.3194 14.0281 11.6456 14.0281H10.3025V12.9616H11.587C11.926 12.9616 12.1824 12.8733 12.3563 12.6967C12.5302 12.5156 12.6171 12.2595 12.6171 11.9283V6.2645H9.56577C9.19196 6.2645 8.9116 6.17176 8.72469 5.98628C8.54213 5.8008 8.45085 5.51596 8.45085 5.13175V1.7335H5.56903C5.22999 1.7335 4.97354 1.82403 4.79967 2.00509C4.63015 2.18174 4.54539 2.43567 4.54539 2.76689V4.33684H3.49568ZM9.39625 4.97277C9.39625 5.092 9.42016 5.17812 9.46797 5.23111C9.52013 5.27969 9.60272 5.30398 9.71573 5.30398H12.3433L9.39625 2.25682V4.97277ZM0.333496 15.2536V6.05252C0.333496 5.3636 0.500842 4.8447 0.835534 4.49582C1.17457 4.14694 1.68096 3.9725 2.35469 3.9725H4.65623C5.02135 3.9725 5.32344 4.01225 5.56251 4.09174C5.80157 4.17123 6.04499 4.34125 6.29275 4.60181L9.88525 8.31802C10.0591 8.49909 10.1895 8.67132 10.2764 8.83472C10.3677 8.9937 10.4286 9.17035 10.459 9.36466C10.4894 9.55897 10.5046 9.79744 10.5046 10.0801V15.2536C10.5046 15.9426 10.3351 16.4615 9.99609 16.8103C9.6614 17.1592 9.15718 17.3337 8.48345 17.3337H2.35469C1.68096 17.3337 1.17457 17.1592 0.835534 16.8103C0.500842 16.4659 0.333496 15.947 0.333496 15.2536ZM1.38321 15.2338C1.38321 15.565 1.46797 15.8189 1.63749 15.9956C1.81136 16.1766 2.06563 16.2671 2.40033 16.2671H8.43129C8.76599 16.2671 9.02026 16.1766 9.19413 15.9956C9.368 15.8189 9.45493 15.565 9.45493 15.2338V10.1331H5.77115C5.36691 10.1331 5.06047 10.0293 4.85183 9.82173C4.64754 9.61417 4.54539 9.30062 4.54539 8.88109V5.03901H2.40685C2.06781 5.03901 1.81136 5.12954 1.63749 5.31061C1.46797 5.48725 1.38321 5.73898 1.38321 6.06577V15.2338ZM5.89503 9.13281H9.25281L5.52991 5.28411V8.76185C5.52991 8.89434 5.55816 8.98928 5.61467 9.04669C5.67118 9.1041 5.76463 9.13281 5.89503 9.13281Z" fill="#12D3C0"/>
</svg>
