<svg width="16" height="17" viewBox="0 0 16 17" fill="none" xmlns="http://www.w3.org/2000/svg">
<path d="M5.19576 4.7695V3.49764C5.19576 2.9465 5.32964 2.53137 5.59739 2.25227C5.86862 1.97317 6.27373 1.83362 6.81272 1.83362H8.81043C9.0921 1.83362 9.3442 1.87425 9.56675 1.9555C9.7893 2.03323 9.99272 2.16925 10.177 2.36356L12.8111 5.08216C13.0058 5.28707 13.1414 5.50258 13.2179 5.72869C13.2944 5.9548 13.3327 6.23037 13.3327 6.5554V10.8585C13.3327 11.4097 13.1971 11.8248 12.9258 12.1039C12.6581 12.383 12.2547 12.5225 11.7157 12.5225H10.6412V11.6693H11.6688C11.94 11.6693 12.1452 11.5987 12.2843 11.4574C12.4234 11.3125 12.4929 11.1076 12.4929 10.8426V6.31163H10.0518C9.75279 6.31163 9.5285 6.23743 9.37897 6.08905C9.23293 5.94067 9.1599 5.71279 9.1599 5.40543V2.68682H6.85444C6.58321 2.68682 6.37805 2.75925 6.23896 2.9041C6.10334 3.04542 6.03553 3.24856 6.03553 3.51353V4.7695H5.19576ZM9.91622 5.27824C9.91622 5.37363 9.93534 5.44252 9.9736 5.48492C10.0153 5.52378 10.0814 5.54321 10.1718 5.54321H12.2738L9.91622 3.10548V5.27824ZM2.66602 13.5029V6.14204C2.66602 5.5909 2.79989 5.17578 3.06765 4.89668C3.33888 4.61758 3.74398 4.47803 4.28297 4.47803H6.12421C6.4163 4.47803 6.65797 4.50982 6.84923 4.57342C7.04048 4.63701 7.23521 4.77303 7.43342 4.98147L10.3074 7.95444C10.4465 8.0993 10.5508 8.23708 10.6204 8.3678C10.6934 8.49499 10.7421 8.6363 10.7664 8.79175C10.7908 8.9472 10.8029 9.13798 10.8029 9.36409V13.5029C10.8029 14.0541 10.6673 14.4692 10.3961 14.7483C10.1283 15.0274 9.72497 15.167 9.18598 15.167H4.28297C3.74398 15.167 3.33888 15.0274 3.06765 14.7483C2.79989 14.4727 2.66602 14.0576 2.66602 13.5029ZM3.50579 13.487C3.50579 13.752 3.5736 13.9552 3.70921 14.0965C3.8483 14.2413 4.05173 14.3137 4.31948 14.3137H9.14426C9.41201 14.3137 9.61543 14.2413 9.75452 14.0965C9.89362 13.9552 9.96316 13.752 9.96316 13.487V9.40648H7.01614C6.69275 9.40648 6.4476 9.32346 6.28069 9.15741C6.11725 8.99136 6.03553 8.74052 6.03553 8.4049V5.33123H4.3247C4.05346 5.33123 3.8483 5.40366 3.70921 5.54851C3.5736 5.68983 3.50579 5.8912 3.50579 6.15264V13.487ZM7.11524 8.60627H9.80147L6.82315 5.52731V8.30951C6.82315 8.41549 6.84575 8.49145 6.89095 8.53738C6.93616 8.58331 7.01092 8.60627 7.11524 8.60627Z" fill="#12D3C0"/>
</svg>
