<svg width="24" height="23" viewBox="0 0 24 23" fill="none" xmlns="http://www.w3.org/2000/svg">
<path fill-rule="evenodd" clip-rule="evenodd" d="M11.454 12.0521L11.6216 12.2183C12.2894 12.8747 12.92 13.4255 13.3632 13.731C13.37 13.7377 13.8163 14.0339 13.9877 14.1097C14.2414 14.2132 14.5288 14.2291 14.7951 14.155C14.9999 14.0872 15.1777 13.979 15.3273 13.8294C15.4395 13.7063 15.5743 13.4531 15.6631 13.265L15.7341 13.1059C16.1935 12.041 16.6612 9.59493 16.6142 8.43202L16.6131 8.3486L16.5985 7.96688C16.5626 7.69954 16.4384 7.45297 16.239 7.25357C16.0604 7.07495 15.8273 6.95083 15.5739 6.9155C15.4945 6.90137 15.3819 6.89394 15.2844 6.89004L14.9187 6.88168C13.6807 6.87357 11.4753 7.33107 10.4956 7.73163C10.4894 7.7254 9.88138 7.97514 9.67047 8.17254L9.64322 8.1998C9.33004 8.51298 9.21605 8.98422 9.35512 9.42258C9.39316 9.54239 9.50856 9.73621 9.61452 9.90182L9.8173 10.2118C10.1684 10.6853 10.7602 11.3584 11.454 12.0521ZM7.75027 14.3181C7.35892 14.7094 7.36202 15.3471 7.75717 15.7423C8.15233 16.1374 8.79001 16.1405 9.18136 15.7492L10.771 13.8511C11.078 13.5441 11.0761 13.0444 10.7656 12.7339C10.4556 12.4239 9.95533 12.4215 9.64832 12.7285L7.75027 14.3181Z" fill="white"/>
</svg>
