<svg width="24" height="25" viewBox="0 0 24 25" fill="none" xmlns="http://www.w3.org/2000/svg">
<path d="M6.42 18.2297C4.19 16.7697 2.75 14.5697 2.75 12.6397C2.75 9.35972 6.89 5.33972 12 5.33972C14.09 5.33972 16.03 6.00972 17.59 7.04972" stroke="#12D3C0" stroke-linecap="round" stroke-linejoin="round"/>
<path d="M19.8496 9.11023C20.7406 10.2402 21.2596 11.4902 21.2596 12.6402C21.2596 15.9202 17.1096 19.9402 11.9996 19.9402C11.0896 19.9402 10.2006 19.8102 9.36963 19.5802" stroke="#12D3C0" stroke-linecap="round" stroke-linejoin="round"/>
<path d="M9.76584 14.8669C9.17084 14.2779 8.83784 13.4749 8.84084 12.6379C8.83684 10.8929 10.2488 9.47493 11.9948 9.47193C12.8348 9.46993 13.6408 9.80293 14.2348 10.3969" stroke="#12D3C0" stroke-linecap="round" stroke-linejoin="round"/>
<path d="M15.1093 13.1991C14.8753 14.4911 13.8643 15.5041 12.5723 15.7411" stroke="#12D3C0" stroke-linecap="round" stroke-linejoin="round"/>
<path d="M19.8917 4.74988L4.11768 20.5239" stroke="#12D3C0" stroke-linecap="round" stroke-linejoin="round"/>
</svg>
