<svg width="16" height="16" viewBox="0 0 16 16" fill="none" xmlns="http://www.w3.org/2000/svg">
<path fill-rule="evenodd" clip-rule="evenodd" d="M6.59755 7.48634C6.30588 7.48634 6.07526 7.71301 6.07526 7.99967C6.07526 8.27967 6.30588 8.51301 6.59755 8.51301H10.6673V11.6997C10.6673 13.333 9.31751 14.6663 7.64891 14.6663H4.34561C2.68379 14.6663 1.33398 13.3397 1.33398 11.7063V4.29967C1.33398 2.65967 2.69057 1.33301 4.3524 1.33301H7.66247C9.31751 1.33301 10.6673 2.65967 10.6673 4.29301V7.48634H6.59755ZM13.0875 5.69314L15.0341 7.63314C15.1341 7.73314 15.1875 7.85981 15.1875 7.99981C15.1875 8.13314 15.1341 8.26647 15.0341 8.35981L13.0875 10.2998C12.9875 10.3998 12.8541 10.4531 12.7275 10.4531C12.5941 10.4531 12.4608 10.3998 12.3608 10.2998C12.1608 10.0998 12.1608 9.77314 12.3608 9.57314L13.4275 8.51314H10.6675V7.48647H13.4275L12.3608 6.42647C12.1608 6.22647 12.1608 5.89981 12.3608 5.69981C12.5608 5.49314 12.8875 5.49314 13.0875 5.69314Z" fill="#ED2D2D"/>
</svg>
