<svg width="14" height="15" viewBox="0 0 14 15" fill="none" xmlns="http://www.w3.org/2000/svg">
<path d="M6.34025 4.79855C6.30642 4.83151 6.16175 4.95596 6.04275 5.07189C5.29433 5.75154 4.06933 7.52456 3.69542 8.45255C3.63533 8.59348 3.50817 8.94979 3.5 9.14016C3.5 9.32258 3.542 9.49647 3.62717 9.6624C3.74617 9.86926 3.93342 10.0352 4.1545 10.1261C4.30792 10.1846 4.767 10.2756 4.77517 10.2756C5.27742 10.3665 6.0935 10.4165 6.99533 10.4165C7.85458 10.4165 8.63742 10.3665 9.14725 10.2921C9.15542 10.2835 9.72592 10.1926 9.92133 10.0932C10.2783 9.91074 10.5 9.55443 10.5 9.17312V9.14016C10.4912 8.89182 10.2696 8.36958 10.2614 8.36958C9.88692 7.4916 8.722 5.7595 7.94792 5.06336C7.94792 5.06336 7.749 4.86731 7.62475 4.78207C7.44625 4.64909 7.22517 4.58317 7.00408 4.58317C6.75733 4.58317 6.5275 4.65761 6.34025 4.79855Z" fill="white"/>
</svg>
