<svg width="1920" height="433" viewBox="0 0 1920 433" fill="none" xmlns="http://www.w3.org/2000/svg">
<g filter="url(#filter0_b_1_195)">
<rect width="2633" height="112" transform="translate(-520.351 0.28125) rotate(7)" fill="#0A0A1A" fill-opacity="0.8"/>
<path d="M-67.4299 96.697L-42.239 99.7901L-44.1524 105.404L-62.1969 103.188L-64.2372 109.466L-55.5276 110.536C-52.3118 110.931 -49.943 111.947 -48.4212 113.584C-46.866 115.196 -46.253 117.342 -46.582 120.022C-46.8562 122.255 -47.6894 124.117 -49.0815 125.609C-50.47 127.07 -52.3339 128.096 -54.6731 128.685C-56.9826 129.278 -59.6708 129.386 -62.7378 129.01L-77.5218 127.194L-67.4299 96.697ZM-61.4097 123.732C-59.3254 123.988 -57.6347 123.757 -56.3376 123.04C-55.0405 122.323 -54.2969 121.19 -54.1068 119.642C-53.9606 118.451 -54.2696 117.521 -55.0338 116.853C-55.7683 116.188 -56.9991 115.75 -58.7261 115.538L-65.9618 114.65L-68.6454 122.844L-61.4097 123.732ZM-12.4781 110.789L-5.55512 111.639L-13.2847 135.082L-20.2524 134.226L-12.4781 110.789ZM-27.5354 116.738C-24.7364 117.082 -22.6936 117.922 -21.4069 119.259C-20.0868 120.57 -19.5657 122.356 -19.8435 124.619C-20.0775 126.525 -20.7885 128.13 -21.9764 129.435C-23.1345 130.744 -24.6711 131.689 -26.5861 132.27C-28.4976 132.821 -30.6592 132.948 -33.0711 132.652L-44.9965 131.188L-37.2278 107.795L-30.3048 108.645L-32.7612 116.097L-27.5354 116.738ZM-32.4678 127.739C-30.9493 127.926 -29.6827 127.703 -28.6682 127.072C-27.6501 126.411 -27.0625 125.441 -26.9052 124.16C-26.6822 122.344 -27.7618 121.29 -30.1439 120.997L-34.2084 120.498L-36.443 127.251L-32.4678 127.739ZM6.02795 137.816C3.55651 137.512 1.45256 136.801 -0.283893 135.681C-2.02035 134.561 -3.29606 133.135 -4.11103 131.402C-4.89256 129.644 -5.15171 127.693 -4.88847 125.549C-4.56308 122.899 -3.64529 120.594 -2.1351 118.633C-0.624913 116.672 1.32175 115.219 3.70488 114.272C6.088 113.326 8.67906 113.024 11.478 113.368C14.0388 113.682 16.1765 114.489 17.891 115.787C19.6389 117.06 20.8556 118.72 21.541 120.769L15.2833 122.993C14.5081 120.692 12.8549 119.385 10.3239 119.075C8.95423 118.906 7.67646 119.097 6.49065 119.647C5.33826 120.17 4.3763 120.989 3.60475 122.103C2.86298 123.221 2.39886 124.54 2.2124 126.058C2.01132 127.696 2.34176 129.066 3.20373 130.17C4.06936 131.243 5.38057 131.888 7.13738 132.103C9.69815 132.418 11.795 131.587 13.428 129.611L18.1695 133.458C16.7852 135.132 15.0185 136.351 12.8694 137.114C10.7501 137.882 8.46961 138.116 6.02795 137.816ZM46.355 123.816L38.1814 122.812L32.3597 140.686L25.392 139.831L31.2137 121.957L23.1741 120.97L25.0373 115.395L48.2182 118.242L46.355 123.816ZM65.465 119.996C67.3409 120.227 69.0149 120.871 70.487 121.928C71.9889 122.989 73.1008 124.395 73.8228 126.146C74.5782 127.871 74.8207 129.835 74.5501 132.038C74.2247 134.689 73.3349 137.012 71.8806 139.01C70.4597 140.982 68.662 142.454 66.4873 143.426C64.3162 144.368 61.995 144.688 59.5236 144.384C55.8611 143.935 53.4168 142.425 52.1906 139.857L48.3646 151.447L41.397 150.591L51.9324 118.698L58.5427 119.509L57.7608 121.816C59.9788 120.245 62.5469 119.638 65.465 119.996ZM59.427 138.524C60.7968 138.692 62.0578 138.514 63.2102 137.991C64.3662 137.438 65.3151 136.602 66.0569 135.484C66.7987 134.366 67.2646 133.033 67.4547 131.485C67.6558 129.847 67.3235 128.491 66.4579 127.418C65.6221 126.348 64.3406 125.707 62.6136 125.495C61.2737 125.33 60.0257 125.525 58.8696 126.078C57.7173 126.602 56.7702 127.422 56.0284 128.54C55.2866 129.658 54.8207 130.991 54.6306 132.54C54.4295 134.177 54.7469 135.531 55.5827 136.601C56.4186 137.671 57.7 138.312 59.427 138.524ZM107.82 125.56L114.743 126.41L107.013 149.852L100.045 148.997L107.82 125.56ZM92.7624 131.509C95.5613 131.853 97.6042 132.693 98.8908 134.03C100.211 135.34 100.732 137.127 100.454 139.39C100.22 141.296 99.5093 142.901 98.3214 144.206C97.1633 145.515 95.6267 146.46 93.7116 147.04C91.8002 147.592 89.6386 147.719 87.2267 147.423L75.3012 145.959L83.07 122.566L89.993 123.416L87.5366 130.867L92.7624 131.509ZM87.8299 142.51C89.3485 142.696 90.615 142.474 91.6295 141.843C92.6476 141.182 93.2353 140.212 93.3925 138.931C93.6155 137.115 92.536 136.06 90.1539 135.768L86.0894 135.269L83.8548 142.022L87.8299 142.51ZM121.459 127.234L128.427 128.09L123.641 142.328L139.95 129.505L146.516 130.311L138.786 153.754L131.774 152.893L136.61 138.616L120.295 151.483L113.685 150.672L121.459 127.234ZM134.735 126.19C132.413 125.904 130.709 125.257 129.624 124.247C128.543 123.208 128.106 121.839 128.315 120.142C128.391 119.517 128.52 118.958 128.702 118.467L133.213 119.021C133.102 119.43 133.037 119.709 133.019 119.858C132.92 120.662 133.097 121.319 133.548 121.827C133.999 122.336 134.672 122.645 135.565 122.755C137.679 123.015 139.128 122.044 139.912 119.843L144.513 120.408C143.781 122.676 142.601 124.284 140.973 125.233C139.376 126.185 137.296 126.504 134.735 126.19ZM170.729 158.038C168.257 157.735 166.153 157.023 164.417 155.903C162.68 154.783 161.405 153.357 160.59 151.625C159.808 149.867 159.549 147.916 159.812 145.772C160.138 143.122 161.055 140.816 162.566 138.856C164.076 136.895 166.022 135.441 168.406 134.495C170.789 133.548 173.38 133.247 176.179 133.59C178.739 133.905 180.877 134.711 182.592 136.01C184.34 137.283 185.556 138.943 186.242 140.992L179.984 143.216C179.209 140.914 177.556 139.608 175.025 139.297C173.655 139.129 172.377 139.32 171.191 139.869C170.039 140.393 169.077 141.212 168.305 142.326C167.564 143.444 167.099 144.762 166.913 146.281C166.712 147.919 167.042 149.289 167.904 150.392C168.77 151.466 170.081 152.11 171.838 152.326C174.399 152.641 176.496 151.81 178.129 149.834L182.87 153.681C181.486 155.354 179.719 156.573 177.57 157.337C175.451 158.104 173.17 158.338 170.729 158.038ZM211.056 144.039L202.882 143.035L197.06 160.909L190.093 160.053L195.914 142.18L187.875 141.192L189.738 135.618L212.919 138.464L211.056 144.039ZM240.061 141.797L232.332 165.24L225.721 164.428L226.459 162.116C224.241 163.687 221.673 164.294 218.755 163.935C216.879 163.705 215.205 163.061 213.732 162.004C212.26 160.947 211.147 159.555 210.391 157.831C209.669 156.08 209.443 154.102 209.714 151.899C210.039 149.249 210.913 146.938 212.333 144.966C213.788 142.969 215.6 141.499 217.771 140.556C219.946 139.584 222.254 139.248 224.696 139.548C228.388 140.001 230.846 141.527 232.068 144.125L233.094 140.941L240.061 141.797ZM221.606 158.437C222.976 158.605 224.237 158.427 225.389 157.904C226.545 157.351 227.494 156.515 228.236 155.397C228.978 154.279 229.443 152.946 229.634 151.398C229.835 149.76 229.502 148.404 228.637 147.331C227.801 146.261 226.519 145.62 224.792 145.408C223.423 145.24 222.16 145.432 221.004 145.986C219.851 146.509 218.904 147.33 218.163 148.448C217.421 149.566 216.955 150.899 216.765 152.447C216.564 154.085 216.881 155.439 217.717 156.508C218.583 157.582 219.879 158.225 221.606 158.437ZM260.305 143.92C262.181 144.15 263.855 144.794 265.328 145.851C266.829 146.912 267.941 148.318 268.663 150.069C269.419 151.794 269.661 153.758 269.391 155.962C269.065 158.612 268.175 160.936 266.721 162.934C265.3 164.905 263.502 166.377 261.328 167.349C259.157 168.292 256.835 168.611 254.364 168.308C250.702 167.858 248.257 166.349 247.031 163.78L243.205 175.37L236.237 174.515L246.773 142.621L253.383 143.433L252.601 145.74C254.819 144.168 257.387 143.562 260.305 143.92ZM254.268 162.447C255.637 162.615 256.898 162.438 258.051 161.914C259.207 161.361 260.156 160.525 260.897 159.407C261.639 158.29 262.105 156.956 262.295 155.408C262.496 153.77 262.164 152.415 261.298 151.341C260.463 150.271 259.181 149.63 257.454 149.418C256.114 149.254 254.866 149.448 253.71 150.001C252.558 150.525 251.611 151.346 250.869 152.464C250.127 153.581 249.661 154.915 249.471 156.463C249.27 158.101 249.587 159.454 250.423 160.524C251.259 161.594 252.541 162.235 254.268 162.447ZM295.369 154.391L287.195 153.388L281.373 171.261L274.406 170.406L280.227 152.532L272.188 151.545L274.051 145.97L297.232 148.817L295.369 154.391ZM302.237 142.086L310.544 143.106L302.544 162.844L297.006 162.164L302.237 142.086ZM296.791 173.517C295.599 173.371 294.661 172.893 293.974 172.083C293.291 171.244 293.014 170.303 293.142 169.261C293.296 168.01 293.853 167.036 294.816 166.338C295.778 165.64 296.899 165.369 298.18 165.527C299.341 165.669 300.265 166.145 300.951 166.955C301.641 167.735 301.922 168.646 301.794 169.688C301.645 170.909 301.085 171.898 300.115 172.656C299.149 173.383 298.041 173.67 296.791 173.517Z" fill="#12D3C0"/>
<path d="M369.315 182.059L373.154 150.794L398.389 153.892L397.682 159.654L379.637 157.439L378.847 163.87L387.512 164.934C391.294 165.399 394.07 166.54 395.842 168.36C397.643 170.183 398.359 172.598 397.99 175.606C397.61 178.702 396.212 180.979 393.796 182.436C391.381 183.892 388.163 184.373 384.143 183.88L369.315 182.059ZM377.164 177.582L384.399 178.471C386.246 178.697 387.704 178.514 388.774 177.92C389.848 177.296 390.471 176.284 390.643 174.885C390.979 172.146 389.242 170.542 385.43 170.074L378.195 169.185L377.164 177.582ZM426.498 189.08L429.448 165.051L436.371 165.901L433.421 189.93L426.498 189.08ZM416.401 171.247C419.554 171.664 421.833 172.67 423.239 174.263C424.679 175.83 425.244 177.879 424.933 180.41C424.608 183.06 423.445 185.018 421.446 186.284C419.451 187.52 416.785 187.933 413.45 187.524L401.754 186.042L404.704 162.013L411.627 162.863L410.684 170.545L416.401 171.247ZM413.434 182.489C414.77 182.683 415.832 182.527 416.62 182.019C417.408 181.511 417.875 180.662 418.021 179.471C418.167 178.28 417.914 177.387 417.262 176.793C416.613 176.169 415.62 175.76 414.284 175.566L410.136 175.011L409.28 181.979L413.434 182.489ZM451.528 192.516C448.937 192.198 446.693 191.394 444.797 190.103C442.903 188.782 441.491 187.113 440.56 185.094C439.659 183.08 439.355 180.881 439.647 178.499C439.944 176.087 440.771 174.028 442.129 172.32C443.52 170.587 445.293 169.324 447.445 168.53C449.602 167.707 451.975 167.454 454.566 167.772C457.097 168.083 459.234 168.889 460.979 170.192C462.727 171.464 463.927 173.138 464.579 175.213L458.818 177.452C458.331 176.244 457.645 175.314 456.758 174.661C455.9 174.011 454.921 173.619 453.819 173.484C452.628 173.337 451.523 173.474 450.505 173.893C449.486 174.312 448.633 174.978 447.947 175.891C447.29 176.808 446.876 177.966 446.704 179.365C446.533 180.765 446.654 181.989 447.07 183.037C447.515 184.089 448.181 184.942 449.068 185.595C449.955 186.248 450.994 186.648 452.185 186.794C453.287 186.929 454.33 186.8 455.315 186.407C456.334 185.988 457.227 185.237 457.995 184.152L463.038 187.764C461.907 189.589 460.337 190.923 458.33 191.765C456.326 192.577 454.059 192.827 451.528 192.516ZM471.663 194.626L474.108 174.705L475.474 176.505L465.782 175.315L466.484 169.598L489.665 172.444L488.963 178.162L479.271 176.971L481.031 175.556L478.586 195.476L471.663 194.626ZM504.543 199.026C502.519 198.777 500.802 198.113 499.393 197.033C497.984 195.954 496.959 194.452 496.319 192.53C495.712 190.582 495.58 188.208 495.924 185.409C496.271 182.58 496.958 180.307 497.985 178.589C499.012 176.872 500.34 175.659 501.968 174.953C503.596 174.246 505.468 174.022 507.582 174.282C509.845 174.56 511.805 175.329 513.464 176.591C515.156 177.826 516.41 179.431 517.225 181.405C518.071 183.383 518.34 185.622 518.033 188.124C517.722 190.654 516.917 192.777 515.619 194.492C514.35 196.21 512.745 197.464 510.804 198.253C508.893 199.046 506.806 199.304 504.543 199.026ZM489.32 205.59L493.334 172.895L499.989 173.712L499.386 178.625L498.375 185.755L497.949 192.912L496.288 206.445L489.32 205.59ZM504.039 193.161C505.201 193.303 506.261 193.161 507.22 192.735C508.209 192.313 509.032 191.643 509.688 190.726C510.378 189.783 510.807 188.627 510.976 187.257C511.147 185.858 511.011 184.632 510.566 183.58C510.15 182.531 509.514 181.682 508.657 181.033C507.829 180.387 506.835 179.993 505.674 179.851C504.512 179.708 503.437 179.848 502.449 180.271C501.46 180.693 500.637 181.363 499.98 182.28C499.324 183.197 498.909 184.355 498.738 185.754C498.569 187.124 498.691 188.348 499.103 189.426C499.518 190.475 500.154 191.324 501.012 191.973C501.869 192.622 502.878 193.018 504.039 193.161ZM546.185 203.776L549.136 179.747L556.059 180.597L553.108 204.626L546.185 203.776ZM536.088 185.943C539.241 186.36 541.52 187.365 542.927 188.959C544.366 190.526 544.931 192.575 544.62 195.106C544.295 197.756 543.132 199.714 541.133 200.98C539.138 202.216 536.472 202.629 533.138 202.219L521.441 200.738L524.391 176.708L531.314 177.558L530.371 185.241L536.088 185.943ZM533.121 197.185C534.457 197.379 535.519 197.222 536.307 196.715C537.095 196.207 537.562 195.357 537.708 194.166C537.854 192.975 537.601 192.083 536.949 191.489C536.3 190.865 535.307 190.456 533.971 190.262L529.823 189.707L528.967 196.675L533.121 197.185ZM559.825 205.451L562.775 181.421L569.698 182.271L567.943 196.564L581.4 183.708L587.787 184.492L584.837 208.522L577.914 207.672L579.669 193.379L566.256 206.241L559.825 205.451ZM575.152 180.311C572.532 179.99 570.636 179.183 569.465 177.89C568.298 176.568 567.841 174.744 568.097 172.418L572.653 172.977C572.558 173.993 572.742 174.832 573.205 175.493C573.668 176.155 574.45 176.553 575.552 176.688C576.624 176.82 577.479 176.623 578.118 176.096C578.787 175.574 579.183 174.807 579.308 173.794L583.953 174.365C583.668 176.687 582.784 178.347 581.301 179.344C579.822 180.311 577.773 180.633 575.152 180.311ZM615.574 212.659C612.983 212.341 610.74 211.536 608.843 210.245C606.95 208.925 605.538 207.255 604.607 205.237C603.706 203.222 603.401 201.023 603.694 198.641C603.99 196.229 604.817 194.17 606.175 192.463C607.567 190.729 609.339 189.466 611.492 188.672C613.648 187.849 616.022 187.596 618.612 187.915C621.143 188.225 623.281 189.032 625.025 190.334C626.773 191.607 627.973 193.28 628.625 195.355L622.864 197.595C622.378 196.387 621.691 195.456 620.804 194.803C619.947 194.154 618.967 193.761 617.866 193.626C616.675 193.48 615.57 193.616 614.551 194.035C613.532 194.454 612.68 195.12 611.993 196.033C611.337 196.95 610.923 198.108 610.751 199.508C610.579 200.907 610.701 202.131 611.116 203.18C611.561 204.232 612.227 205.084 613.114 205.737C614.001 206.39 615.04 206.79 616.231 206.936C617.333 207.071 618.377 206.943 619.362 206.55C620.38 206.131 621.274 205.379 622.042 204.295L627.084 207.906C625.953 209.732 624.384 211.065 622.376 211.907C620.372 212.719 618.105 212.969 615.574 212.659ZM635.709 214.768L638.155 194.848L639.521 196.648L629.828 195.458L630.53 189.741L653.711 192.587L653.009 198.304L643.317 197.114L645.078 195.698L642.632 215.618L635.709 214.768ZM668.857 218.838L669.433 214.149L669.112 213.066L670.143 204.669C670.326 203.181 670.007 201.963 669.187 201.016C668.396 200.072 667.062 199.485 665.186 199.255C663.906 199.098 662.615 199.151 661.313 199.414C660.045 199.651 658.937 200.059 657.989 200.638L656.086 195.463C657.509 194.7 659.175 194.18 661.083 193.9C662.992 193.621 664.899 193.598 666.804 193.832C670.467 194.281 673.204 195.494 675.017 197.47C676.83 199.445 677.511 202.264 677.062 205.927L675.378 219.639L668.857 218.838ZM661.488 218.296C659.612 218.066 658.043 217.556 656.78 216.766C655.52 215.946 654.601 214.942 654.021 213.752C653.442 212.563 653.236 211.283 653.404 209.914C653.58 208.484 654.076 207.276 654.892 206.288C655.739 205.304 656.958 204.607 658.549 204.198C660.145 203.759 662.163 203.69 664.605 203.989L670.992 204.774L670.493 208.838L664.865 208.147C663.227 207.946 662.063 208.075 661.372 208.534C660.711 208.997 660.331 209.631 660.232 210.435C660.122 211.328 660.377 212.085 660.996 212.705C661.648 213.299 662.585 213.67 663.806 213.82C664.967 213.963 666.042 213.823 667.031 213.4C668.024 212.948 668.794 212.211 669.343 211.19L670.02 214.538C669.323 216.024 668.256 217.087 666.817 217.726C665.379 218.366 663.602 218.556 661.488 218.296ZM695.546 222.478C693.521 222.229 691.804 221.565 690.395 220.485C688.986 219.406 687.961 217.905 687.321 215.982C686.714 214.034 686.582 211.66 686.926 208.861C687.273 206.032 687.96 203.759 688.987 202.041C690.014 200.324 691.342 199.111 692.97 198.405C694.598 197.698 696.47 197.474 698.584 197.734C700.847 198.012 702.808 198.781 704.466 200.043C706.158 201.278 707.412 202.883 708.228 204.857C709.073 206.835 709.342 209.074 709.035 211.576C708.724 214.107 707.919 216.229 706.621 217.944C705.352 219.662 703.747 220.916 701.806 221.705C699.896 222.498 697.809 222.756 695.546 222.478ZM680.322 229.042L684.337 196.347L690.992 197.164L690.388 202.077L689.377 209.207L688.952 216.364L687.29 229.897L680.322 229.042ZM695.042 216.613C696.203 216.755 697.263 216.614 698.222 216.187C699.211 215.765 700.034 215.095 700.69 214.178C701.381 213.235 701.81 212.079 701.978 210.709C702.15 209.31 702.013 208.084 701.568 207.032C701.153 205.983 700.516 205.134 699.659 204.485C698.832 203.839 697.837 203.445 696.676 203.303C695.515 203.16 694.44 203.3 693.451 203.723C692.462 204.145 691.639 204.815 690.982 205.732C690.326 206.649 689.912 207.807 689.74 209.206C689.572 210.576 689.693 211.8 690.105 212.878C690.52 213.927 691.157 214.776 692.014 215.425C692.871 216.074 693.88 216.47 695.042 216.613ZM716.707 224.714L719.153 204.793L720.519 206.593L710.827 205.403L711.529 199.686L734.71 202.532L734.008 208.249L724.315 207.059L726.076 205.643L723.63 225.564L716.707 224.714ZM737.163 216.208L738.285 195.626L746.592 196.646L742.702 216.888L737.163 216.208ZM738.556 227.759C737.305 227.605 736.327 227.077 735.622 226.175C734.917 225.272 734.632 224.27 734.767 223.168C734.906 222.036 735.423 221.148 736.319 220.502C737.218 219.827 738.292 219.566 739.543 219.719C740.823 219.877 741.803 220.39 742.482 221.259C743.195 222.102 743.482 223.089 743.343 224.221C743.207 225.323 742.688 226.226 741.786 226.931C740.913 227.64 739.836 227.916 738.556 227.759Z" fill="white"/>
<path d="M816.929 205.283L842.12 208.376L840.206 213.989L822.162 211.774L820.121 218.052L828.831 219.121C832.047 219.516 834.416 220.533 835.937 222.17C837.493 223.782 838.106 225.927 837.777 228.607C837.502 230.841 836.669 232.703 835.277 234.194C833.889 235.656 832.025 236.681 829.686 237.271C827.376 237.864 824.688 237.972 821.621 237.595L806.837 235.78L816.929 205.283ZM822.949 232.318C825.033 232.574 826.724 232.343 828.021 231.626C829.318 230.909 830.062 229.776 830.252 228.227C830.398 227.036 830.089 226.107 829.325 225.439C828.59 224.774 827.36 224.336 825.633 224.124L818.397 223.235L815.713 231.429L822.949 232.318ZM871.881 219.375L878.804 220.225L871.074 243.667L864.106 242.812L871.881 219.375ZM856.823 225.324C859.622 225.668 861.665 226.508 862.952 227.845C864.272 229.155 864.793 230.942 864.515 233.205C864.281 235.111 863.57 236.716 862.382 238.021C861.224 239.33 859.688 240.275 857.773 240.855C855.861 241.407 853.699 241.534 851.288 241.238L839.362 239.774L847.131 216.381L854.054 217.231L851.598 224.682L856.823 225.324ZM851.891 236.325C853.409 236.511 854.676 236.289 855.69 235.658C856.709 234.997 857.296 234.027 857.453 232.746C857.676 230.93 856.597 229.875 854.215 229.583L850.15 229.084L847.916 235.837L851.891 236.325ZM890.387 246.401C887.915 246.098 885.811 245.386 884.075 244.266C882.338 243.146 881.063 241.72 880.248 239.988C879.466 238.23 879.207 236.279 879.47 234.135C879.796 231.485 880.713 229.179 882.224 227.219C883.734 225.258 885.68 223.804 888.064 222.858C890.447 221.911 893.038 221.61 895.837 221.953C898.397 222.268 900.535 223.074 902.25 224.373C903.998 225.646 905.214 227.306 905.9 229.355L899.642 231.579C898.867 229.277 897.214 227.971 894.683 227.66C893.313 227.492 892.035 227.683 890.849 228.232C889.697 228.756 888.735 229.575 887.963 230.689C887.222 231.807 886.758 233.125 886.571 234.644C886.37 236.282 886.7 237.652 887.562 238.755C888.428 239.829 889.739 240.473 891.496 240.689C894.057 241.004 896.154 240.173 897.787 238.197L902.528 242.044C901.144 243.717 899.377 244.936 897.228 245.7C895.109 246.467 892.828 246.701 890.387 246.401ZM930.714 232.402L922.54 231.398L916.718 249.272L909.751 248.416L915.572 230.543L907.533 229.555L909.396 223.981L932.577 226.827L930.714 232.402ZM949.824 228.582C951.7 228.813 953.374 229.456 954.846 230.514C956.348 231.575 957.46 232.981 958.181 234.732C958.937 236.457 959.179 238.421 958.909 240.624C958.583 243.274 957.694 245.598 956.239 247.596C954.818 249.567 953.021 251.039 950.846 252.011C948.675 252.954 946.354 253.273 943.882 252.97C940.22 252.52 937.775 251.011 936.549 248.442L932.723 260.033L925.756 259.177L936.291 227.283L942.901 228.095L942.119 230.402C944.337 228.83 946.906 228.224 949.824 228.582ZM943.786 247.109C945.155 247.278 946.416 247.1 947.569 246.577C948.725 246.023 949.674 245.188 950.416 244.07C951.157 242.952 951.623 241.619 951.813 240.07C952.014 238.433 951.682 237.077 950.817 236.004C949.981 234.934 948.699 234.293 946.972 234.081C945.632 233.916 944.384 234.111 943.228 234.664C942.076 235.187 941.129 236.008 940.387 237.126C939.645 238.244 939.179 239.577 938.989 241.125C938.788 242.763 939.106 244.117 939.941 245.187C940.777 246.256 942.059 246.897 943.786 247.109ZM992.178 234.145L999.101 234.995L991.372 258.438L984.404 257.583L992.178 234.145ZM977.121 240.095C979.92 240.438 981.963 241.279 983.25 242.615C984.57 243.926 985.091 245.713 984.813 247.976C984.579 249.882 983.868 251.487 982.68 252.792C981.522 254.1 979.985 255.045 978.07 255.626C976.159 256.177 973.997 256.305 971.585 256.009L959.66 254.544L967.429 231.152L974.352 232.002L971.895 239.453L977.121 240.095ZM972.189 251.096C973.707 251.282 974.974 251.06 975.988 250.429C977.006 249.768 977.594 248.797 977.751 247.517C977.974 245.7 976.895 244.646 974.513 244.354L970.448 243.855L968.213 250.608L972.189 251.096ZM1005.82 235.82L1012.79 236.676L1008 250.914L1024.31 238.091L1030.87 238.897L1023.15 262.339L1016.13 261.478L1020.97 247.201L1004.65 260.069L998.044 259.257L1005.82 235.82ZM1019.09 234.775C1016.77 234.49 1015.07 233.843 1013.98 232.833C1012.9 231.793 1012.46 230.425 1012.67 228.728C1012.75 228.102 1012.88 227.544 1013.06 227.052L1017.57 227.606C1017.46 228.016 1017.4 228.295 1017.38 228.444C1017.28 229.248 1017.46 229.904 1017.91 230.413C1018.36 230.922 1019.03 231.231 1019.92 231.341C1022.04 231.6 1023.49 230.63 1024.27 228.429L1028.87 228.994C1028.14 231.261 1026.96 232.87 1025.33 233.818C1023.73 234.771 1021.65 235.09 1019.09 234.775ZM1055.09 266.624C1052.62 266.321 1050.51 265.609 1048.78 264.489C1047.04 263.369 1045.76 261.943 1044.95 260.211C1044.17 258.452 1043.91 256.501 1044.17 254.357C1044.5 251.707 1045.41 249.402 1046.92 247.441C1048.43 245.481 1050.38 244.027 1052.76 243.081C1055.15 242.134 1057.74 241.832 1060.54 242.176C1063.1 242.491 1065.24 243.297 1066.95 244.596C1068.7 245.868 1069.91 247.529 1070.6 249.578L1064.34 251.802C1063.57 249.5 1061.91 248.194 1059.38 247.883C1058.01 247.715 1056.74 247.906 1055.55 248.455C1054.4 248.979 1053.44 249.797 1052.66 250.912C1051.92 252.03 1051.46 253.348 1051.27 254.867C1051.07 256.504 1051.4 257.875 1052.26 258.978C1053.13 260.051 1054.44 260.696 1056.2 260.912C1058.76 261.226 1060.85 260.396 1062.49 258.42L1067.23 262.266C1065.84 263.94 1064.08 265.159 1061.93 265.923C1059.81 266.69 1057.53 266.924 1055.09 266.624ZM1095.41 252.624L1087.24 251.621L1081.42 269.495L1074.45 268.639L1080.27 250.765L1072.23 249.778L1074.1 244.204L1097.28 247.05L1095.41 252.624ZM1124.42 250.383L1116.69 273.825L1110.08 273.014L1110.82 270.701C1108.6 272.273 1106.03 272.879 1103.11 272.521C1101.24 272.291 1099.56 271.647 1098.09 270.59C1096.62 269.532 1095.51 268.141 1094.75 266.416C1094.03 264.665 1093.8 262.688 1094.07 260.485C1094.4 257.834 1095.27 255.524 1096.69 253.552C1098.15 251.554 1099.96 250.084 1102.13 249.142C1104.3 248.17 1106.61 247.833 1109.05 248.133C1112.75 248.587 1115.2 250.113 1116.43 252.711L1117.45 249.527L1124.42 250.383ZM1105.96 267.023C1107.33 267.191 1108.6 267.013 1109.75 266.49C1110.9 265.936 1111.85 265.101 1112.59 263.983C1113.34 262.865 1113.8 261.532 1113.99 259.983C1114.19 258.346 1113.86 256.99 1113 255.917C1112.16 254.847 1110.88 254.206 1109.15 253.994C1107.78 253.826 1106.52 254.018 1105.36 254.571C1104.21 255.095 1103.26 255.915 1102.52 257.033C1101.78 258.151 1101.31 259.485 1101.12 261.033C1100.92 262.671 1101.24 264.024 1102.08 265.094C1102.94 266.168 1104.24 266.81 1105.96 267.023ZM1144.66 252.506C1146.54 252.736 1148.21 253.38 1149.69 254.437C1151.19 255.498 1152.3 256.904 1153.02 258.655C1153.78 260.38 1154.02 262.344 1153.75 264.548C1153.42 267.198 1152.53 269.522 1151.08 271.519C1149.66 273.491 1147.86 274.963 1145.69 275.935C1143.52 276.877 1141.19 277.197 1138.72 276.893C1135.06 276.444 1132.62 274.934 1131.39 272.366L1127.56 283.956L1120.6 283.101L1131.13 251.207L1137.74 252.018L1136.96 254.325C1139.18 252.754 1141.75 252.147 1144.66 252.506ZM1138.63 271.033C1140 271.201 1141.26 271.023 1142.41 270.5C1143.57 269.947 1144.51 269.111 1145.26 267.993C1146 266.875 1146.46 265.542 1146.65 263.994C1146.85 262.356 1146.52 261 1145.66 259.927C1144.82 258.857 1143.54 258.216 1141.81 258.004C1140.47 257.84 1139.22 258.034 1138.07 258.587C1136.92 259.111 1135.97 259.931 1135.23 261.049C1134.49 262.167 1134.02 263.5 1133.83 265.049C1133.63 266.686 1133.95 268.04 1134.78 269.11C1135.62 270.18 1136.9 270.821 1138.63 271.033ZM1179.73 262.977L1171.55 261.973L1165.73 279.847L1158.76 278.991L1164.59 261.118L1156.55 260.131L1158.41 254.556L1181.59 257.402L1179.73 262.977ZM1186.6 250.672L1194.9 251.692L1186.9 271.429L1181.36 270.749L1186.6 250.672ZM1181.15 282.103C1179.96 281.956 1179.02 281.478 1178.33 280.669C1177.65 279.829 1177.37 278.888 1177.5 277.846C1177.65 276.596 1178.21 275.621 1179.17 274.923C1180.14 274.226 1181.26 273.955 1182.54 274.112C1183.7 274.255 1184.62 274.731 1185.31 275.541C1186 276.321 1186.28 277.232 1186.15 278.274C1186 279.495 1185.44 280.484 1184.47 281.241C1183.51 281.969 1182.4 282.256 1181.15 282.103Z" fill="#5D12CE"/>
<path d="M1253.67 290.645L1257.51 259.38L1282.75 262.478L1282.04 268.24L1264 266.024L1263.21 272.456L1271.87 273.52C1275.65 273.984 1278.43 275.126 1280.2 276.945C1282 278.769 1282.72 281.184 1282.35 284.191C1281.97 287.288 1280.57 289.565 1278.16 291.021C1275.74 292.478 1272.52 292.959 1268.5 292.465L1253.67 290.645ZM1261.52 286.168L1268.76 287.056C1270.6 287.283 1272.06 287.099 1273.13 286.505C1274.21 285.882 1274.83 284.87 1275 283.471C1275.34 280.731 1273.6 279.127 1269.79 278.659L1262.55 277.771L1261.52 286.168ZM1310.86 297.666L1313.81 273.636L1320.73 274.486L1317.78 298.516L1310.86 297.666ZM1300.76 279.832C1303.91 280.25 1306.19 281.255 1307.6 282.848C1309.04 284.416 1309.6 286.465 1309.29 288.996C1308.97 291.646 1307.8 293.604 1305.8 294.869C1303.81 296.105 1301.14 296.519 1297.81 296.109L1286.11 294.628L1289.06 270.598L1295.99 271.448L1295.04 279.131L1300.76 279.832ZM1297.79 291.075C1299.13 291.269 1300.19 291.112 1300.98 290.604C1301.77 290.097 1302.23 289.247 1302.38 288.056C1302.53 286.865 1302.27 285.973 1301.62 285.379C1300.97 284.755 1299.98 284.346 1298.64 284.152L1294.49 283.597L1293.64 290.565L1297.79 291.075ZM1335.89 301.102C1333.3 300.784 1331.05 299.979 1329.16 298.689C1327.26 297.368 1325.85 295.699 1324.92 293.68C1324.02 291.665 1323.71 289.467 1324.01 287.085C1324.3 284.673 1325.13 282.613 1326.49 280.906C1327.88 279.173 1329.65 277.909 1331.8 277.116C1333.96 276.292 1336.33 276.04 1338.92 276.358C1341.46 276.668 1343.59 277.475 1345.34 278.777C1347.09 280.05 1348.29 281.724 1348.94 283.798L1343.18 286.038C1342.69 284.83 1342 283.899 1341.12 283.246C1340.26 282.597 1339.28 282.205 1338.18 282.069C1336.99 281.923 1335.88 282.059 1334.86 282.478C1333.84 282.897 1332.99 283.563 1332.31 284.477C1331.65 285.393 1331.23 286.552 1331.06 287.951C1330.89 289.351 1331.01 290.575 1331.43 291.623C1331.87 292.675 1332.54 293.528 1333.43 294.181C1334.31 294.833 1335.35 295.233 1336.54 295.379C1337.65 295.515 1338.69 295.386 1339.67 294.993C1340.69 294.574 1341.59 293.822 1342.35 292.738L1347.4 296.349C1346.27 298.175 1344.7 299.509 1342.69 300.35C1340.68 301.162 1338.42 301.413 1335.89 301.102ZM1356.02 303.211L1358.47 283.291L1359.83 285.091L1350.14 283.901L1350.84 278.184L1374.02 281.03L1373.32 286.747L1363.63 285.557L1365.39 284.141L1362.94 304.061L1356.02 303.211ZM1388.9 307.611C1386.88 307.363 1385.16 306.699 1383.75 305.619C1382.34 304.539 1381.32 303.038 1380.68 301.116C1380.07 299.167 1379.94 296.793 1380.28 293.994C1380.63 291.166 1381.32 288.892 1382.34 287.175C1383.37 285.457 1384.7 284.245 1386.33 283.538C1387.96 282.831 1389.83 282.608 1391.94 282.867C1394.2 283.145 1396.16 283.915 1397.82 285.176C1399.51 286.412 1400.77 288.017 1401.58 289.991C1402.43 291.968 1402.7 294.208 1402.39 296.709C1402.08 299.24 1401.28 301.363 1399.98 303.077C1398.71 304.796 1397.1 306.049 1395.16 306.839C1393.25 307.632 1391.17 307.889 1388.9 307.611ZM1373.68 314.175L1377.69 281.481L1384.35 282.298L1383.74 287.211L1382.73 294.341L1382.31 301.497L1380.65 315.031L1373.68 314.175ZM1388.4 301.746C1389.56 301.889 1390.62 301.747 1391.58 301.321C1392.57 300.898 1393.39 300.228 1394.05 299.312C1394.74 298.369 1395.17 297.212 1395.33 295.843C1395.51 294.443 1395.37 293.217 1394.92 292.165C1394.51 291.117 1393.87 290.268 1393.02 289.619C1392.19 288.973 1391.19 288.579 1390.03 288.436C1388.87 288.294 1387.8 288.434 1386.81 288.856C1385.82 289.279 1385 289.949 1384.34 290.865C1383.68 291.782 1383.27 292.94 1383.1 294.34C1382.93 295.71 1383.05 296.934 1383.46 298.012C1383.88 299.06 1384.51 299.909 1385.37 300.558C1386.23 301.208 1387.24 301.604 1388.4 301.746ZM1430.54 312.362L1433.49 288.332L1440.42 289.182L1437.47 313.212L1430.54 312.362ZM1420.45 294.528C1423.6 294.946 1425.88 295.951 1427.29 297.544C1428.72 299.111 1429.29 301.16 1428.98 303.691C1428.65 306.341 1427.49 308.299 1425.49 309.565C1423.5 310.801 1420.83 311.214 1417.5 310.805L1405.8 309.323L1408.75 285.294L1415.67 286.144L1414.73 293.826L1420.45 294.528ZM1417.48 305.77C1418.82 305.965 1419.88 305.808 1420.67 305.3C1421.45 304.792 1421.92 303.943 1422.07 302.752C1422.21 301.561 1421.96 300.668 1421.31 300.074C1420.66 299.451 1419.67 299.042 1418.33 298.847L1414.18 298.293L1413.33 305.26L1417.48 305.77ZM1444.18 314.036L1447.13 290.007L1454.06 290.857L1452.3 305.15L1465.76 292.294L1472.15 293.078L1469.2 317.107L1462.27 316.257L1464.03 301.965L1450.61 314.826L1444.18 314.036ZM1459.51 288.897C1456.89 288.575 1455 287.768 1453.82 286.476C1452.66 285.154 1452.2 283.33 1452.46 281.003L1457.01 281.563C1456.92 282.579 1457.1 283.417 1457.56 284.079C1458.03 284.74 1458.81 285.138 1459.91 285.274C1460.98 285.405 1461.84 285.208 1462.48 284.682C1463.15 284.16 1463.54 283.392 1463.67 282.38L1468.31 282.95C1468.03 285.273 1467.14 286.932 1465.66 287.929C1464.18 288.896 1462.13 289.219 1459.51 288.897ZM1499.93 321.244C1497.34 320.926 1495.1 320.122 1493.2 318.831C1491.31 317.51 1489.9 315.841 1488.97 313.822C1488.06 311.808 1487.76 309.609 1488.05 307.227C1488.35 304.815 1489.18 302.755 1490.53 301.048C1491.93 299.315 1493.7 298.052 1495.85 297.258C1498.01 296.435 1500.38 296.182 1502.97 296.5C1505.5 296.811 1507.64 297.617 1509.38 298.92C1511.13 300.192 1512.33 301.866 1512.98 303.941L1507.22 306.18C1506.74 304.972 1506.05 304.042 1505.16 303.389C1504.31 302.739 1503.33 302.347 1502.22 302.212C1501.03 302.065 1499.93 302.202 1498.91 302.621C1497.89 303.04 1497.04 303.706 1496.35 304.619C1495.7 305.536 1495.28 306.694 1495.11 308.093C1494.94 309.493 1495.06 310.717 1495.47 311.765C1495.92 312.817 1496.59 313.67 1497.47 314.323C1498.36 314.976 1499.4 315.375 1500.59 315.522C1501.69 315.657 1502.74 315.528 1503.72 315.135C1504.74 314.716 1505.63 313.965 1506.4 312.88L1511.44 316.492C1510.31 318.317 1508.74 319.651 1506.73 320.493C1504.73 321.304 1502.46 321.555 1499.93 321.244ZM1520.07 323.354L1522.51 303.433L1523.88 305.233L1514.19 304.043L1514.89 298.326L1538.07 301.172L1537.37 306.889L1527.68 305.699L1529.44 304.283L1526.99 324.204L1520.07 323.354ZM1553.22 327.424L1553.79 322.734L1553.47 321.652L1554.5 313.255C1554.68 311.766 1554.37 310.548 1553.55 309.601C1552.75 308.658 1551.42 308.071 1549.54 307.841C1548.26 307.683 1546.97 307.736 1545.67 308C1544.4 308.237 1543.3 308.645 1542.35 309.224L1540.44 304.048C1541.87 303.286 1543.53 302.765 1545.44 302.486C1547.35 302.206 1549.26 302.183 1551.16 302.417C1554.83 302.867 1557.56 304.08 1559.38 306.055C1561.19 308.031 1561.87 310.85 1561.42 314.513L1559.74 328.225L1553.22 327.424ZM1545.85 326.882C1543.97 326.651 1542.4 326.141 1541.14 325.352C1539.88 324.532 1538.96 323.527 1538.38 322.338C1537.8 321.148 1537.59 319.869 1537.76 318.499C1537.94 317.07 1538.43 315.861 1539.25 314.873C1540.1 313.889 1541.32 313.193 1542.91 312.784C1544.5 312.345 1546.52 312.275 1548.96 312.575L1555.35 313.359L1554.85 317.424L1549.22 316.733C1547.59 316.532 1546.42 316.661 1545.73 317.12C1545.07 317.583 1544.69 318.216 1544.59 319.02C1544.48 319.913 1544.74 320.67 1545.35 321.29C1546.01 321.884 1546.94 322.256 1548.16 322.406C1549.33 322.548 1550.4 322.408 1551.39 321.986C1552.38 321.533 1553.15 320.797 1553.7 319.776L1554.38 323.124C1553.68 324.61 1552.61 325.673 1551.18 326.312C1549.74 326.951 1547.96 327.141 1545.85 326.882ZM1579.9 331.064C1577.88 330.815 1576.16 330.151 1574.75 329.071C1573.34 327.991 1572.32 326.49 1571.68 324.568C1571.07 322.619 1570.94 320.246 1571.28 317.447C1571.63 314.618 1572.32 312.345 1573.35 310.627C1574.37 308.909 1575.7 307.697 1577.33 306.99C1578.96 306.283 1580.83 306.06 1582.94 306.319C1585.21 306.597 1587.17 307.367 1588.82 308.628C1590.52 309.864 1591.77 311.469 1592.59 313.443C1593.43 315.42 1593.7 317.66 1593.39 320.161C1593.08 322.692 1592.28 324.815 1590.98 326.529C1589.71 328.248 1588.11 329.501 1586.17 330.291C1584.25 331.084 1582.17 331.341 1579.9 331.064ZM1564.68 337.627L1568.7 304.933L1575.35 305.75L1574.75 310.663L1573.74 317.793L1573.31 324.949L1571.65 338.483L1564.68 337.627ZM1579.4 325.198C1580.56 325.341 1581.62 325.199 1582.58 324.773C1583.57 324.35 1584.39 323.68 1585.05 322.764C1585.74 321.821 1586.17 320.664 1586.34 319.295C1586.51 317.895 1586.37 316.669 1585.93 315.617C1585.51 314.569 1584.87 313.72 1584.02 313.071C1583.19 312.425 1582.2 312.031 1581.03 311.888C1579.87 311.746 1578.8 311.886 1577.81 312.308C1576.82 312.731 1576 313.401 1575.34 314.318C1574.68 315.234 1574.27 316.393 1574.1 317.792C1573.93 319.162 1574.05 320.386 1574.46 321.464C1574.88 322.512 1575.52 323.361 1576.37 324.011C1577.23 324.66 1578.24 325.056 1579.4 325.198ZM1601.07 333.299L1603.51 313.379L1604.88 315.179L1595.19 313.989L1595.89 308.271L1619.07 311.118L1618.37 316.835L1608.67 315.645L1610.43 314.229L1607.99 334.149L1601.07 333.299ZM1621.52 324.794L1622.64 304.212L1630.95 305.232L1627.06 325.474L1621.52 324.794ZM1622.91 336.345C1621.66 336.191 1620.69 335.663 1619.98 334.76C1619.28 333.858 1618.99 332.855 1619.13 331.754C1619.26 330.622 1619.78 329.733 1620.68 329.088C1621.58 328.412 1622.65 328.151 1623.9 328.305C1625.18 328.462 1626.16 328.975 1626.84 329.845C1627.55 330.688 1627.84 331.675 1627.7 332.807C1627.57 333.908 1627.05 334.812 1626.14 335.517C1625.27 336.226 1624.19 336.502 1622.91 336.345Z" fill="white"/>
<path d="M1701.29 313.868L1726.48 316.961L1724.56 322.575L1706.52 320.359L1704.48 326.637L1713.19 327.707C1716.41 328.102 1718.77 329.118 1720.3 330.756C1721.85 332.367 1722.46 334.513 1722.14 337.193C1721.86 339.426 1721.03 341.288 1719.64 342.78C1718.25 344.242 1716.38 345.267 1714.04 345.856C1711.73 346.449 1709.05 346.557 1705.98 346.181L1691.2 344.366L1701.29 313.868ZM1707.31 340.903C1709.39 341.159 1711.08 340.929 1712.38 340.211C1713.68 339.494 1714.42 338.361 1714.61 336.813C1714.76 335.622 1714.45 334.692 1713.68 334.024C1712.95 333.36 1711.72 332.921 1709.99 332.709L1702.76 331.821L1700.07 340.015L1707.31 340.903ZM1756.24 327.96L1763.16 328.81L1755.43 352.253L1748.46 351.397L1756.24 327.96ZM1741.18 333.91C1743.98 334.253 1746.02 335.093 1747.31 336.43C1748.63 337.741 1749.15 339.528 1748.87 341.791C1748.64 343.696 1747.93 345.302 1746.74 346.607C1745.58 347.915 1744.05 348.86 1742.13 349.441C1740.22 349.992 1738.06 350.12 1735.65 349.824L1723.72 348.359L1731.49 324.967L1738.41 325.817L1735.96 333.268L1741.18 333.91ZM1736.25 344.91C1737.77 345.097 1739.03 344.875 1740.05 344.243C1741.07 343.583 1741.65 342.612 1741.81 341.332C1742.04 339.515 1740.96 338.461 1738.57 338.168L1734.51 337.669L1732.27 344.422L1736.25 344.91ZM1774.75 354.987C1772.27 354.684 1770.17 353.972 1768.43 352.852C1766.7 351.732 1765.42 350.306 1764.61 348.574C1763.82 346.815 1763.57 344.864 1763.83 342.72C1764.15 340.07 1765.07 337.765 1766.58 335.804C1768.09 333.844 1770.04 332.39 1772.42 331.443C1774.81 330.497 1777.4 330.195 1780.2 330.539C1782.76 330.853 1784.89 331.66 1786.61 332.959C1788.36 334.231 1789.57 335.892 1790.26 337.94L1784 340.164C1783.23 337.863 1781.57 336.557 1779.04 336.246C1777.67 336.078 1776.39 336.268 1775.21 336.818C1774.06 337.341 1773.09 338.16 1772.32 339.275C1771.58 340.392 1771.12 341.711 1770.93 343.229C1770.73 344.867 1771.06 346.238 1771.92 347.341C1772.79 348.414 1774.1 349.059 1775.85 349.275C1778.42 349.589 1780.51 348.758 1782.15 346.783L1786.89 350.629C1785.5 352.303 1783.74 353.522 1781.59 354.286C1779.47 355.053 1777.19 355.287 1774.75 354.987ZM1815.07 340.987L1806.9 339.984L1801.08 357.857L1794.11 357.002L1799.93 339.128L1791.89 338.141L1793.75 332.567L1816.94 335.413L1815.07 340.987ZM1834.18 337.168C1836.06 337.398 1837.73 338.042 1839.2 339.099C1840.71 340.16 1841.82 341.566 1842.54 343.317C1843.3 345.042 1843.54 347.006 1843.27 349.21C1842.94 351.86 1842.05 354.184 1840.6 356.181C1839.18 358.153 1837.38 359.625 1835.2 360.597C1833.03 361.539 1830.71 361.859 1828.24 361.555C1824.58 361.106 1822.13 359.597 1820.91 357.028L1817.08 368.618L1810.11 367.763L1820.65 335.869L1827.26 336.68L1826.48 338.987C1828.7 337.416 1831.26 336.809 1834.18 337.168ZM1828.14 355.695C1829.51 355.863 1830.78 355.686 1831.93 355.162C1833.08 354.609 1834.03 353.773 1834.77 352.655C1835.52 351.537 1835.98 350.204 1836.17 348.656C1836.37 347.018 1836.04 345.663 1835.18 344.589C1834.34 343.519 1833.06 342.878 1831.33 342.666C1829.99 342.502 1828.74 342.696 1827.59 343.249C1826.43 343.773 1825.49 344.593 1824.75 345.711C1824 346.829 1823.54 348.162 1823.35 349.711C1823.15 351.349 1823.46 352.702 1824.3 353.772C1825.14 354.842 1826.42 355.483 1828.14 355.695ZM1876.54 342.731L1883.46 343.581L1875.73 367.024L1868.76 366.168L1876.54 342.731ZM1861.48 348.68C1864.28 349.024 1866.32 349.864 1867.61 351.201C1868.93 352.512 1869.45 354.298 1869.17 356.561C1868.94 358.467 1868.23 360.072 1867.04 361.377C1865.88 362.686 1864.34 363.631 1862.43 364.212C1860.52 364.763 1858.36 364.89 1855.94 364.594L1844.02 363.13L1851.79 339.737L1858.71 340.587L1856.25 348.039L1861.48 348.68ZM1856.55 359.681C1858.07 359.868 1859.33 359.645 1860.35 359.014C1861.36 358.353 1861.95 357.383 1862.11 356.102C1862.33 354.286 1861.25 353.232 1858.87 352.939L1854.81 352.44L1852.57 359.193L1856.55 359.681ZM1890.18 344.406L1897.14 345.261L1892.36 359.499L1908.67 346.676L1915.23 347.482L1907.5 370.925L1900.49 370.064L1905.33 355.787L1889.01 368.655L1882.4 367.843L1890.18 344.406ZM1903.45 343.361C1901.13 343.076 1899.43 342.428 1898.34 341.418C1897.26 340.379 1896.82 339.01 1897.03 337.313C1897.11 336.688 1897.24 336.129 1897.42 335.638L1901.93 336.192C1901.82 336.601 1901.75 336.881 1901.74 337.029C1901.64 337.833 1901.81 338.49 1902.27 338.999C1902.72 339.507 1903.39 339.817 1904.28 339.926C1906.4 340.186 1907.85 339.215 1908.63 337.014L1913.23 337.579C1912.5 339.847 1911.32 341.455 1909.69 342.404C1908.09 343.356 1906.01 343.675 1903.45 343.361ZM1939.45 375.21C1936.97 374.906 1934.87 374.195 1933.13 373.075C1931.4 371.955 1930.12 370.528 1929.31 368.796C1928.53 367.038 1928.27 365.087 1928.53 362.943C1928.85 360.293 1929.77 357.987 1931.28 356.027C1932.79 354.066 1934.74 352.613 1937.12 351.666C1939.51 350.719 1942.1 350.418 1944.9 350.762C1947.46 351.076 1949.59 351.883 1951.31 353.181C1953.06 354.454 1954.27 356.114 1954.96 358.163L1948.7 360.387C1947.93 358.085 1946.27 356.779 1943.74 356.469C1942.37 356.3 1941.09 356.491 1939.91 357.041C1938.76 357.564 1937.79 358.383 1937.02 359.497C1936.28 360.615 1935.82 361.933 1935.63 363.452C1935.43 365.09 1935.76 366.46 1936.62 367.563C1937.49 368.637 1938.8 369.282 1940.56 369.497C1943.12 369.812 1945.21 368.981 1946.85 367.005L1951.59 370.852C1950.2 372.526 1948.44 373.744 1946.29 374.508C1944.17 375.276 1941.89 375.509 1939.45 375.21ZM1979.77 361.21L1971.6 360.206L1965.78 378.08L1958.81 377.225L1964.63 359.351L1956.59 358.364L1958.46 352.789L1981.64 355.635L1979.77 361.21ZM2008.78 358.968L2001.05 382.411L1994.44 381.599L1995.18 379.287C1992.96 380.858 1990.39 381.465 1987.47 381.107C1985.6 380.876 1983.92 380.232 1982.45 379.175C1980.98 378.118 1979.86 376.727 1979.11 375.002C1978.39 373.251 1978.16 371.273 1978.43 369.07C1978.76 366.42 1979.63 364.109 1981.05 362.138C1982.51 360.14 1984.32 358.67 1986.49 357.727C1988.66 356.755 1990.97 356.419 1993.41 356.719C1997.11 357.172 1999.56 358.698 2000.79 361.296L2001.81 358.113L2008.78 358.968ZM1990.32 375.608C1991.69 375.776 1992.95 375.599 1994.11 375.075C1995.26 374.522 1996.21 373.686 1996.95 372.568C1997.69 371.45 1998.16 370.117 1998.35 368.569C1998.55 366.931 1998.22 365.576 1997.35 364.502C1996.52 363.432 1995.24 362.791 1993.51 362.579C1992.14 362.411 1990.88 362.604 1989.72 363.157C1988.57 363.68 1987.62 364.501 1986.88 365.619C1986.14 366.737 1985.67 368.07 1985.48 369.618C1985.28 371.256 1985.6 372.61 1986.43 373.68C1987.3 374.753 1988.6 375.396 1990.32 375.608ZM2029.02 361.091C2030.9 361.321 2032.57 361.965 2034.04 363.023C2035.55 364.083 2036.66 365.489 2037.38 367.241C2038.14 368.965 2038.38 370.93 2038.11 373.133C2037.78 375.783 2036.89 378.107 2035.44 380.105C2034.02 382.076 2032.22 383.548 2030.05 384.52C2027.87 385.463 2025.55 385.782 2023.08 385.479C2019.42 385.029 2016.97 383.52 2015.75 380.951L2011.92 392.542L2004.95 391.686L2015.49 359.792L2022.1 360.604L2021.32 362.911C2023.54 361.339 2026.1 360.733 2029.02 361.091ZM2022.98 379.618C2024.35 379.787 2025.62 379.609 2026.77 379.085C2027.92 378.532 2028.87 377.697 2029.61 376.579C2030.36 375.461 2030.82 374.128 2031.01 372.579C2031.21 370.942 2030.88 369.586 2030.02 368.512C2029.18 367.443 2027.9 366.802 2026.17 366.59C2024.83 366.425 2023.58 366.619 2022.43 367.173C2021.28 367.696 2020.33 368.517 2019.59 369.635C2018.84 370.753 2018.38 372.086 2018.19 373.634C2017.99 375.272 2018.3 376.626 2019.14 377.696C2019.98 378.765 2021.26 379.406 2022.98 379.618ZM2064.09 371.562L2055.91 370.559L2050.09 388.432L2043.12 387.577L2048.94 369.703L2040.91 368.716L2042.77 363.142L2065.95 365.988L2064.09 371.562ZM2070.95 359.258L2079.26 360.278L2071.26 380.015L2065.72 379.335L2070.95 359.258ZM2065.51 390.688C2064.32 390.542 2063.38 390.064 2062.69 389.254C2062.01 388.415 2061.73 387.474 2061.86 386.432C2062.01 385.181 2062.57 384.207 2063.53 383.509C2064.5 382.811 2065.62 382.541 2066.9 382.698C2068.06 382.84 2068.98 383.317 2069.67 384.126C2070.36 384.906 2070.64 385.817 2070.51 386.859C2070.36 388.08 2069.8 389.069 2068.83 389.827C2067.87 390.555 2066.76 390.842 2065.51 390.688Z" fill="#12D3C0"/>
</g>
<defs>
<filter id="filter0_b_1_195" x="-684" y="-149.719" width="2927.02" height="732.047" filterUnits="userSpaceOnUse" color-interpolation-filters="sRGB">
<feFlood flood-opacity="0" result="BackgroundImageFix"/>
<feGaussianBlur in="BackgroundImageFix" stdDeviation="75"/>
<feComposite in2="SourceAlpha" operator="in" result="effect1_backgroundBlur_1_195"/>
<feBlend mode="normal" in="SourceGraphic" in2="effect1_backgroundBlur_1_195" result="shape"/>
</filter>
</defs>
</svg>
