<svg width="1920" height="433" viewBox="0 0 1920 433" fill="none" xmlns="http://www.w3.org/2000/svg">
<g filter="url(#filter0_b_1_188)">
<rect width="2633" height="112" transform="translate(-522.292 321.164) rotate(-7)" fill="#0A0A1A" fill-opacity="0.8"/>
<path d="M-59.5004 305.144L-34.3095 302.051L-34.808 307.961L-52.8525 310.176L-53.3134 316.762L-44.6038 315.692C-41.388 315.297 -38.8437 315.71 -36.9709 316.931C-35.0721 318.119 -33.9581 320.052 -33.6291 322.732C-33.3548 324.965 -33.7127 326.974 -34.7027 328.758C-35.6963 330.512 -37.2567 331.958 -39.3839 333.096C-41.4814 334.23 -44.0636 334.985 -47.1305 335.362L-61.9145 337.177L-59.5004 305.144ZM-47.1187 329.92C-45.0343 329.664 -43.4496 329.031 -42.3646 328.021C-41.2796 327.011 -40.8321 325.732 -41.0222 324.184C-41.1685 322.993 -41.6932 322.166 -42.5964 321.702C-43.4698 321.235 -44.7701 321.108 -46.4971 321.32L-53.7327 322.208L-54.3543 330.808L-47.1187 329.92ZM-2.77178 305.523L4.15123 304.673L2.32257 329.29L-4.6451 330.145L-2.77178 305.523ZM-15.9425 314.939C-13.1435 314.595 -10.9581 314.916 -9.38627 315.902C-7.7883 316.854 -6.85038 318.462 -6.57252 320.725C-6.33853 322.631 -6.63998 324.36 -7.47689 325.914C-8.28402 327.464 -9.54641 328.752 -11.2641 329.779C-12.9854 330.776 -15.0519 331.423 -17.4638 331.719L-29.3893 333.183L-27.5105 308.606L-20.5875 307.756L-21.1683 315.58L-15.9425 314.939ZM-18.0671 326.806C-16.5485 326.62 -15.3734 326.097 -14.5417 325.24C-13.7137 324.352 -13.3783 323.268 -13.5355 321.988C-13.7585 320.171 -15.0611 319.41 -17.4432 319.702L-21.5077 320.201L-22.0422 327.294L-18.0671 326.806ZM21.723 327.27C19.2515 327.574 17.0379 327.392 15.0821 326.726C13.1263 326.059 11.5434 324.984 10.3336 323.5C9.1499 321.983 8.42643 320.153 8.16319 318.009C7.8378 315.359 8.17062 312.9 9.16164 310.632C10.1527 308.364 11.6898 306.483 13.7732 304.988C15.8565 303.493 18.2977 302.574 21.0966 302.23C23.6574 301.916 25.9267 302.181 27.9044 303.026C29.9083 303.838 31.4906 305.155 32.6513 306.977L27.1175 310.649C25.8085 308.603 23.8884 307.736 21.3574 308.047C19.9877 308.215 18.7941 308.709 17.7764 309.529C16.7849 310.316 16.0496 311.343 15.5706 312.611C15.1213 313.875 14.9899 315.266 15.1763 316.785C15.3774 318.423 16.0296 319.673 17.1329 320.534C18.2325 321.367 19.6607 321.675 21.4175 321.459C23.9783 321.145 25.8119 319.832 26.9184 317.519L32.4496 320.105C31.5114 322.064 30.092 323.674 28.1915 324.935C26.3208 326.192 24.1646 326.97 21.723 327.27ZM57.4653 303.93L49.2917 304.934L47.967 323.685L40.9993 324.541L42.324 305.79L34.2844 306.777L34.7437 300.917L57.9246 298.071L57.4653 303.93ZM75.0836 295.601C76.9595 295.371 78.7395 295.591 80.4237 296.26C82.1376 296.926 83.5567 298.022 84.6808 299.546C85.8311 301.037 86.5415 302.884 86.8121 305.088C87.1375 307.738 86.8363 310.208 85.9084 312.498C85.0067 314.755 83.6184 316.618 81.7435 318.087C79.865 319.527 77.69 320.398 75.2186 320.702C71.5561 321.152 68.8193 320.279 67.0082 318.083L66.0997 330.254L59.1321 331.11L61.6387 297.615L68.2491 296.803L68.0484 299.231C69.8204 297.169 72.1655 295.96 75.0836 295.601ZM73.7071 315.039C75.0769 314.871 76.2575 314.393 77.249 313.607C78.2369 312.79 78.9554 311.75 79.4047 310.486C79.854 309.221 79.9836 307.815 79.7935 306.267C79.5924 304.629 78.942 303.394 77.8424 302.562C76.7726 301.726 75.3741 301.414 73.6471 301.626C72.3072 301.791 71.1433 302.281 70.1554 303.098C69.1639 303.884 68.4435 304.91 67.9942 306.174C67.5449 307.438 67.4153 308.844 67.6055 310.393C67.8065 312.031 68.442 313.267 69.5118 314.103C70.5817 314.939 71.9801 315.251 73.7071 315.039ZM117.526 290.753L124.449 289.903L122.62 314.519L115.653 315.374L117.526 290.753ZM104.355 300.168C107.154 299.824 109.34 300.145 110.911 301.131C112.509 302.083 113.447 303.691 113.725 305.954C113.959 307.86 113.658 309.589 112.821 311.143C112.014 312.693 110.751 313.981 109.034 315.008C107.312 316.006 105.246 316.652 102.834 316.948L90.9085 318.413L92.7873 293.836L99.7103 292.985L99.1295 300.81L104.355 300.168ZM102.231 312.035C103.749 311.849 104.924 311.327 105.756 310.469C106.584 309.581 106.919 308.498 106.762 307.217C106.539 305.401 105.237 304.639 102.855 304.931L98.7901 305.43L98.2555 312.523L102.231 312.035ZM131.165 289.078L138.133 288.222L136.934 303.195L149.657 286.808L156.222 286.001L154.394 310.618L147.381 311.479L148.62 296.456L135.902 312.888L129.292 313.7L131.165 289.078ZM143.795 284.852C141.472 285.138 139.662 284.921 138.365 284.204C137.064 283.457 136.31 282.235 136.101 280.538C136.025 279.912 136.015 279.339 136.072 278.819L140.583 278.265C140.574 278.689 140.579 278.975 140.598 279.124C140.696 279.928 141.026 280.522 141.587 280.907C142.148 281.291 142.876 281.429 143.769 281.319C145.883 281.06 147.054 279.767 147.283 277.442L151.883 276.877C151.721 279.255 150.966 281.1 149.616 282.415C148.296 283.725 146.355 284.538 143.795 284.852ZM186.424 307.048C183.952 307.351 181.739 307.169 179.783 306.503C177.827 305.836 176.244 304.761 175.034 303.278C173.851 301.76 173.127 299.93 172.864 297.786C172.538 295.136 172.871 292.677 173.862 290.409C174.853 288.142 176.39 286.26 178.474 284.765C180.557 283.27 182.998 282.351 185.797 282.007C188.358 281.693 190.627 281.958 192.605 282.804C194.609 283.615 196.191 284.932 197.352 286.755L191.818 290.426C190.509 288.381 188.589 287.513 186.058 287.824C184.688 287.992 183.495 288.486 182.477 289.306C181.486 290.093 180.75 291.12 180.271 292.388C179.822 293.652 179.69 295.044 179.877 296.562C180.078 298.2 180.73 299.45 181.833 300.312C182.933 301.144 184.361 301.452 186.118 301.237C188.679 300.922 190.513 299.609 191.619 297.297L197.15 299.882C196.212 301.841 194.793 303.451 192.892 304.712C191.021 305.969 188.865 306.748 186.424 307.048ZM222.166 283.708L213.992 284.711L212.668 303.463L205.7 304.318L207.025 285.567L198.985 286.554L199.444 280.694L222.625 277.848L222.166 283.708ZM249.768 274.515L247.939 299.132L241.329 299.943L241.485 297.521C239.713 299.583 237.368 300.792 234.45 301.151C232.574 301.381 230.794 301.161 229.109 300.492C227.425 299.822 226.008 298.742 224.858 297.251C223.734 295.726 223.036 293.862 222.766 291.659C222.44 289.009 222.728 286.555 223.63 284.299C224.558 282.009 225.961 280.144 227.84 278.704C229.715 277.235 231.873 276.35 234.315 276.05C238.007 275.597 240.76 276.483 242.575 278.708L242.8 275.371L249.768 274.515ZM235.886 295.126C237.256 294.958 238.436 294.48 239.428 293.693C240.416 292.877 241.134 291.837 241.584 290.572C242.033 289.308 242.162 287.902 241.972 286.354C241.771 284.716 241.121 283.481 240.021 282.649C238.951 281.813 237.553 281.501 235.826 281.713C234.456 281.881 233.277 282.374 232.29 283.19C231.298 283.977 230.578 285.002 230.128 286.266C229.679 287.531 229.55 288.937 229.74 290.485C229.941 292.123 230.576 293.36 231.646 294.196C232.746 295.028 234.159 295.338 235.886 295.126ZM269.924 271.678C271.8 271.447 273.58 271.667 275.264 272.337C276.978 273.003 278.397 274.098 279.521 275.623C280.672 277.114 281.382 278.961 281.653 281.164C281.978 283.814 281.677 286.284 280.749 288.575C279.847 290.831 278.459 292.694 276.584 294.164C274.706 295.603 272.531 296.475 270.059 296.778C266.397 297.228 263.66 296.355 261.849 294.16L260.94 306.331L253.973 307.186L256.479 273.691L263.09 272.88L262.889 275.307C264.661 273.246 267.006 272.036 269.924 271.678ZM268.548 291.115C269.917 290.947 271.098 290.47 272.089 289.683C273.077 288.867 273.796 287.826 274.245 286.562C274.694 285.298 274.824 283.892 274.634 282.343C274.433 280.706 273.783 279.471 272.683 278.638C271.613 277.803 270.215 277.491 268.488 277.703C267.148 277.867 265.984 278.358 264.996 279.174C264.004 279.961 263.284 280.986 262.835 282.251C262.385 283.515 262.256 284.921 262.446 286.469C262.647 288.107 263.283 289.344 264.352 290.18C265.422 291.016 266.821 291.327 268.548 291.115ZM306.479 273.355L298.305 274.359L296.981 293.11L290.013 293.966L291.338 275.215L283.298 276.202L283.757 270.342L306.938 267.496L306.479 273.355ZM310.166 259.755L318.474 258.735L315.486 279.821L309.948 280.501L310.166 259.755ZM312.486 291.569C311.294 291.715 310.268 291.479 309.406 290.859C308.54 290.21 308.044 289.364 307.916 288.322C307.762 287.071 308.068 285.991 308.833 285.081C309.597 284.171 310.62 283.637 311.9 283.48C313.062 283.338 314.073 283.576 314.935 284.196C315.793 284.785 316.287 285.601 316.415 286.644C316.564 287.864 316.261 288.96 315.503 289.929C314.742 290.869 313.736 291.416 312.486 291.569Z" fill="#5D12CE"/>
<path d="M384.922 282.312L381.083 251.047L406.319 247.949L407.026 253.71L388.982 255.926L389.771 262.358L398.436 261.294C402.218 260.829 405.188 261.266 407.347 262.602C409.536 263.936 410.815 266.106 411.184 269.113C411.564 272.21 410.759 274.757 408.767 276.755C406.776 278.752 403.77 279.998 399.751 280.492L384.922 282.312ZM391.455 276.07L398.691 275.181C400.537 274.954 401.907 274.424 402.802 273.588C403.693 272.723 404.053 271.591 403.881 270.191C403.545 267.452 401.471 266.316 397.66 266.784L390.424 267.673L391.455 276.07ZM442.105 275.291L439.155 251.262L446.078 250.411L449.028 274.441L442.105 275.291ZM427.994 260.43C431.154 260.072 433.609 260.496 435.359 261.702C437.135 262.874 438.178 264.726 438.489 267.257C438.815 269.907 438.16 272.088 436.527 273.8C434.89 275.482 432.404 276.528 429.069 276.937L417.361 278.329L414.411 254.3L421.334 253.45L422.277 261.132L427.994 260.43ZM427.835 272.056C429.178 271.921 430.171 271.512 430.812 270.829C431.454 270.146 431.701 269.209 431.555 268.018C431.409 266.827 430.947 266.022 430.171 265.603C429.39 265.155 428.328 264.998 426.985 265.133L422.825 265.598L423.681 272.566L427.835 272.056ZM467.223 272.57C464.632 272.888 462.26 272.65 460.108 271.857C457.951 271.033 456.177 269.755 454.786 268.022C453.424 266.285 452.597 264.225 452.304 261.843C452.008 259.431 452.312 257.233 453.217 255.247C454.148 253.229 455.562 251.574 457.459 250.284C459.352 248.963 461.594 248.144 464.184 247.826C466.715 247.515 468.985 247.78 470.992 248.622C472.996 249.434 474.565 250.767 475.7 252.623L470.652 256.19C469.888 255.135 468.996 254.398 467.978 253.979C466.989 253.557 465.944 253.413 464.842 253.548C463.651 253.694 462.612 254.094 461.725 254.747C460.838 255.4 460.172 256.252 459.726 257.305C459.311 258.353 459.189 259.577 459.361 260.976C459.533 262.376 459.947 263.534 460.604 264.451C461.29 265.364 462.143 266.03 463.161 266.449C464.18 266.868 465.285 267.004 466.476 266.858C467.578 266.723 468.559 266.345 469.42 265.726C470.307 265.073 470.992 264.127 471.475 262.889L477.241 265.174C476.585 267.219 475.385 268.893 473.641 270.195C471.893 271.467 469.754 272.259 467.223 272.57ZM487.27 269.746L484.824 249.825L486.585 251.241L476.892 252.431L476.19 246.714L499.371 243.868L500.073 249.585L490.381 250.775L491.747 248.975L494.193 268.896L487.27 269.746ZM520.238 266.06C518.214 266.309 516.387 266.08 514.759 265.373C513.131 264.666 511.773 263.457 510.687 261.747C509.626 260.003 508.924 257.732 508.581 254.933C508.233 252.104 508.35 249.732 508.931 247.817C509.512 245.902 510.507 244.405 511.916 243.325C513.325 242.245 515.086 241.576 517.2 241.316C519.463 241.038 521.552 241.311 523.467 242.133C525.407 242.923 527.012 244.177 528.281 245.895C529.58 247.609 530.382 249.717 530.69 252.218C531 254.749 530.733 257.004 529.888 258.982C529.072 260.956 527.818 262.56 526.126 263.796C524.464 265.028 522.502 265.782 520.238 266.06ZM507.055 276.112L503.041 243.417L509.696 242.6L510.299 247.513L511.043 254.676L512.361 261.723L514.023 275.256L507.055 276.112ZM518.331 260.491C519.492 260.349 520.486 259.955 521.314 259.309C522.171 258.66 522.807 257.811 523.223 256.762C523.664 255.68 523.801 254.455 523.632 253.085C523.461 251.685 523.032 250.529 522.345 249.616C521.689 248.699 520.866 248.029 519.877 247.607C518.918 247.18 517.858 247.039 516.696 247.181C515.535 247.324 514.526 247.72 513.669 248.369C512.811 249.018 512.175 249.867 511.76 250.916C511.344 251.964 511.223 253.188 511.394 254.588C511.563 255.957 511.977 257.115 512.637 258.062C513.294 258.979 514.116 259.649 515.105 260.071C516.094 260.494 517.169 260.634 518.331 260.491ZM561.792 260.595L558.842 236.566L565.765 235.716L568.715 259.745L561.792 260.595ZM547.681 245.734C550.841 245.377 553.296 245.801 555.046 247.006C556.822 248.179 557.866 250.03 558.176 252.561C558.502 255.211 557.848 257.392 556.214 259.104C554.577 260.786 552.091 261.832 548.756 262.241L537.048 263.634L534.098 239.604L541.021 238.754L541.964 246.436L547.681 245.734ZM547.522 257.36C548.865 257.226 549.858 256.817 550.499 256.133C551.141 255.45 551.389 254.513 551.242 253.322C551.096 252.131 550.635 251.326 549.858 250.908C549.077 250.459 548.015 250.303 546.672 250.437L542.512 250.903L543.368 257.87L547.522 257.36ZM575.432 258.921L572.481 234.891L579.404 234.041L581.159 248.334L591.106 232.604L597.494 231.82L600.444 255.85L593.521 256.7L591.766 242.407L581.863 258.131L575.432 258.921ZM584.223 230.82C581.602 231.142 579.568 230.817 578.119 229.846C576.666 228.846 575.782 227.186 575.467 224.868L580.023 224.308C580.177 225.317 580.558 226.086 581.168 226.616C581.777 227.146 582.632 227.343 583.734 227.207C584.806 227.076 585.588 226.678 586.081 226.013C586.603 225.344 586.802 224.503 586.678 223.491L591.323 222.921C591.608 225.243 591.152 227.067 589.955 228.393C588.754 229.689 586.843 230.498 584.223 230.82ZM631.269 252.427C628.679 252.745 626.307 252.508 624.154 251.714C621.998 250.891 620.224 249.612 618.832 247.879C617.47 246.142 616.643 244.083 616.351 241.701C616.054 239.289 616.359 237.09 617.264 235.105C618.195 233.087 619.608 231.432 621.505 230.141C623.398 228.821 625.64 228.001 628.231 227.683C630.762 227.372 633.031 227.638 635.039 228.479C637.043 229.291 638.612 230.625 639.746 232.481L634.698 236.047C633.934 234.993 633.043 234.256 632.024 233.837C631.035 233.414 629.99 233.27 628.888 233.406C627.697 233.552 626.658 233.952 625.771 234.605C624.884 235.258 624.218 236.11 623.773 237.162C623.357 238.211 623.236 239.435 623.408 240.834C623.579 242.234 623.994 243.392 624.65 244.308C625.337 245.222 626.189 245.888 627.208 246.307C628.227 246.726 629.331 246.862 630.522 246.716C631.624 246.581 632.605 246.203 633.466 245.584C634.353 244.931 635.038 243.985 635.521 242.747L641.287 245.031C640.632 247.076 639.432 248.75 637.687 250.052C635.94 251.325 633.8 252.117 631.269 252.427ZM651.316 249.603L648.87 229.683L650.631 231.099L640.939 232.289L640.237 226.572L663.418 223.726L664.12 229.443L654.427 230.633L655.793 228.833L658.239 248.753L651.316 249.603ZM684.464 245.533L683.888 240.843L683.316 239.871L682.285 231.474C682.102 229.985 681.498 228.881 680.472 228.16C679.477 227.436 678.041 227.189 676.165 227.42C674.885 227.577 673.645 227.941 672.445 228.511C671.272 229.048 670.296 229.712 669.516 230.503L666.417 225.941C667.614 224.858 669.104 223.949 670.888 223.216C672.672 222.483 674.517 222 676.423 221.766C680.085 221.316 683.035 221.831 685.272 223.309C687.509 224.787 688.852 227.358 689.302 231.02L690.985 244.732L684.464 245.533ZM677.183 246.79C675.307 247.02 673.661 246.905 672.244 246.444C670.824 245.954 669.689 245.201 668.839 244.187C667.989 243.173 667.48 241.982 667.312 240.612C667.136 239.183 667.325 237.89 667.878 236.734C668.461 235.574 669.476 234.603 670.921 233.821C672.363 233.01 674.305 232.454 676.746 232.154L683.133 231.37L683.632 235.434L678.005 236.125C676.367 236.326 675.268 236.733 674.709 237.346C674.179 237.955 673.964 238.662 674.062 239.466C674.172 240.359 674.602 241.031 675.353 241.483C676.13 241.902 677.128 242.036 678.349 241.886C679.511 241.744 680.52 241.348 681.377 240.698C682.231 240.019 682.8 239.118 683.085 237.995L684.552 241.079C684.236 242.69 683.457 243.979 682.216 244.948C680.975 245.916 679.297 246.53 677.183 246.79ZM711.241 242.608C709.216 242.857 707.389 242.628 705.761 241.921C704.133 241.214 702.775 240.005 701.689 238.295C700.628 236.551 699.926 234.28 699.583 231.481C699.235 228.652 699.352 226.28 699.933 224.365C700.514 222.45 701.509 220.953 702.918 219.873C704.327 218.793 706.088 218.124 708.202 217.864C710.465 217.586 712.554 217.859 714.469 218.681C716.409 219.471 718.014 220.725 719.283 222.443C720.582 224.157 721.385 226.265 721.692 228.766C722.002 231.297 721.735 233.552 720.89 235.529C720.074 237.503 718.821 239.108 717.129 240.344C715.466 241.575 713.504 242.33 711.241 242.608ZM698.057 252.66L694.043 219.965L700.698 219.148L701.301 224.061L702.045 231.224L703.363 238.271L705.025 251.804L698.057 252.66ZM709.333 237.039C710.494 236.897 711.488 236.502 712.316 235.857C713.173 235.207 713.809 234.359 714.225 233.31C714.666 232.228 714.803 231.002 714.635 229.633C714.463 228.233 714.034 227.077 713.347 226.164C712.691 225.247 711.868 224.577 710.879 224.155C709.92 223.728 708.86 223.586 707.698 223.729C706.537 223.872 705.528 224.268 704.671 224.917C703.813 225.566 703.177 226.415 702.762 227.464C702.346 228.512 702.225 229.736 702.397 231.135C702.565 232.505 702.979 233.663 703.639 234.61C704.296 235.527 705.119 236.196 706.107 236.619C707.096 237.042 708.171 237.182 709.333 237.039ZM732.314 239.658L729.868 219.737L731.629 221.153L721.937 222.344L721.235 216.626L744.416 213.78L745.118 219.497L735.426 220.687L736.791 218.887L739.237 238.808L732.314 239.658ZM750.105 226.456L746.214 206.215L754.522 205.195L755.644 225.776L750.105 226.456ZM754.251 237.327C753 237.481 751.924 237.205 751.021 236.5C750.118 235.794 749.599 234.891 749.464 233.789C749.325 232.658 749.612 231.67 750.324 230.827C751.033 229.954 752.013 229.441 753.264 229.287C754.544 229.13 755.619 229.391 756.488 230.07C757.384 230.716 757.901 231.605 758.04 232.736C758.175 233.838 757.89 234.84 757.185 235.743C756.509 236.642 755.531 237.17 754.251 237.327Z" fill="white"/>
<path d="M824.858 196.558L850.049 193.465L849.551 199.375L831.506 201.591L831.045 208.176L839.755 207.107C842.971 206.712 845.515 207.125 847.388 208.346C849.287 209.533 850.401 211.467 850.73 214.147C851.004 216.38 850.646 218.388 849.656 220.172C848.662 221.927 847.102 223.372 844.975 224.51C842.877 225.644 840.295 226.4 837.228 226.776L822.444 228.591L824.858 196.558ZM837.24 221.334C839.324 221.078 840.909 220.445 841.994 219.436C843.079 218.426 843.527 217.147 843.336 215.598C843.19 214.407 842.665 213.58 841.762 213.117C840.889 212.65 839.589 212.522 837.862 212.734L830.626 213.623L830.004 222.223L837.24 221.334ZM881.587 196.938L888.51 196.088L886.681 220.704L879.714 221.56L881.587 196.938ZM868.416 206.353C871.215 206.009 873.401 206.33 874.972 207.316C876.57 208.269 877.508 209.876 877.786 212.139C878.02 214.045 877.719 215.775 876.882 217.328C876.075 218.878 874.812 220.167 873.095 221.194C871.373 222.191 869.307 222.837 866.895 223.134L854.969 224.598L856.848 200.021L863.771 199.171L863.19 206.995L868.416 206.353ZM866.292 218.22C867.81 218.034 868.985 217.512 869.817 216.654C870.645 215.767 870.98 214.683 870.823 213.402C870.6 211.586 869.298 210.824 866.915 211.116L862.851 211.616L862.316 218.709L866.292 218.22ZM906.082 218.685C903.61 218.988 901.397 218.807 899.441 218.14C897.485 217.473 895.902 216.398 894.692 214.915C893.509 213.398 892.785 211.567 892.522 209.423C892.196 206.773 892.529 204.314 893.52 202.047C894.511 199.779 896.049 197.898 898.132 196.402C900.215 194.907 902.656 193.988 905.455 193.644C908.016 193.33 910.285 193.595 912.263 194.441C914.267 195.253 915.849 196.57 917.01 198.392L911.476 202.063C910.167 200.018 908.247 199.15 905.716 199.461C904.346 199.629 903.153 200.123 902.135 200.943C901.144 201.73 900.408 202.757 899.929 204.025C899.48 205.289 899.349 206.681 899.535 208.199C899.736 209.837 900.388 211.087 901.492 211.949C902.591 212.781 904.019 213.089 905.776 212.874C908.337 212.559 910.171 211.246 911.277 208.934L916.808 211.519C915.87 213.478 914.451 215.088 912.55 216.349C910.68 217.606 908.523 218.385 906.082 218.685ZM941.824 195.345L933.65 196.348L932.326 215.1L925.358 215.955L926.683 197.204L918.643 198.191L919.102 192.331L942.283 189.485L941.824 195.345ZM959.442 187.016C961.318 186.785 963.098 187.005 964.782 187.675C966.496 188.341 967.915 189.436 969.04 190.96C970.19 192.451 970.9 194.299 971.171 196.502C971.496 199.152 971.195 201.622 970.267 203.912C969.365 206.169 967.977 208.032 966.102 209.502C964.224 210.941 962.049 211.813 959.577 212.116C955.915 212.566 953.178 211.693 951.367 209.497L950.458 221.669L943.491 222.524L945.997 189.029L952.608 188.218L952.407 190.645C954.179 188.584 956.524 187.374 959.442 187.016ZM958.066 206.453C959.436 206.285 960.616 205.808 961.608 205.021C962.596 204.204 963.314 203.164 963.763 201.9C964.213 200.636 964.342 199.23 964.152 197.681C963.951 196.043 963.301 194.809 962.201 193.976C961.131 193.14 959.733 192.829 958.006 193.041C956.666 193.205 955.502 193.696 954.514 194.512C953.523 195.299 952.802 196.324 952.353 197.588C951.904 198.853 951.774 200.259 951.964 201.807C952.165 203.445 952.801 204.682 953.871 205.518C954.94 206.353 956.339 206.665 958.066 206.453ZM1001.88 182.167L1008.81 181.317L1006.98 205.933L1000.01 206.789L1001.88 182.167ZM988.714 191.582C991.513 191.239 993.698 191.56 995.27 192.546C996.868 193.498 997.806 195.106 998.084 197.369C998.318 199.274 998.016 201.004 997.18 202.557C996.372 204.107 995.11 205.396 993.392 206.423C991.671 207.42 989.605 208.067 987.193 208.363L975.267 209.827L977.146 185.25L984.069 184.4L983.488 192.224L988.714 191.582ZM986.589 203.45C988.108 203.263 989.283 202.741 990.115 201.883C990.943 200.996 991.278 199.912 991.121 198.632C990.898 196.815 989.595 196.053 987.213 196.346L983.149 196.845L982.614 203.938L986.589 203.45ZM1015.52 180.492L1022.49 179.637L1021.29 194.61L1034.02 178.222L1040.58 177.416L1038.75 202.032L1031.74 202.893L1032.98 187.87L1020.26 204.303L1013.65 205.114L1015.52 180.492ZM1028.15 176.267C1025.83 176.552 1024.02 176.336 1022.72 175.619C1021.42 174.872 1020.67 173.649 1020.46 171.952C1020.38 171.327 1020.37 170.754 1020.43 170.233L1024.94 169.679C1024.93 170.103 1024.94 170.39 1024.96 170.539C1025.06 171.343 1025.38 171.937 1025.95 172.321C1026.51 172.706 1027.23 172.843 1028.13 172.734C1030.24 172.474 1031.41 171.182 1031.64 168.856L1036.24 168.292C1036.08 170.669 1035.32 172.515 1033.97 173.829C1032.65 175.14 1030.71 175.952 1028.15 176.267ZM1070.78 198.462C1068.31 198.765 1066.1 198.584 1064.14 197.917C1062.19 197.251 1060.6 196.176 1059.39 194.692C1058.21 193.175 1057.49 191.344 1057.22 189.201C1056.9 186.55 1057.23 184.092 1058.22 181.824C1059.21 179.556 1060.75 177.675 1062.83 176.18C1064.92 174.685 1067.36 173.765 1070.16 173.422C1072.72 173.107 1074.99 173.373 1076.96 174.218C1078.97 175.03 1080.55 176.347 1081.71 178.169L1076.18 181.841C1074.87 179.795 1072.95 178.928 1070.42 179.238C1069.05 179.406 1067.85 179.901 1066.84 180.721C1065.84 181.507 1065.11 182.535 1064.63 183.803C1064.18 185.067 1064.05 186.458 1064.24 187.977C1064.44 189.614 1065.09 190.864 1066.19 191.726C1067.29 192.558 1068.72 192.867 1070.48 192.651C1073.04 192.337 1074.87 191.023 1075.98 188.711L1081.51 191.296C1080.57 193.255 1079.15 194.865 1077.25 196.126C1075.38 197.384 1073.22 198.162 1070.78 198.462ZM1106.52 175.122L1098.35 176.126L1097.03 194.877L1090.06 195.732L1091.38 176.981L1083.34 177.968L1083.8 172.109L1106.98 169.263L1106.52 175.122ZM1134.13 165.93L1132.3 190.546L1125.69 191.358L1125.84 188.936C1124.07 190.997 1121.73 192.207 1118.81 192.565C1116.93 192.796 1115.15 192.576 1113.47 191.906C1111.78 191.236 1110.37 190.156 1109.22 188.665C1108.09 187.141 1107.39 185.277 1107.12 183.073C1106.8 180.423 1107.09 177.97 1107.99 175.713C1108.92 173.423 1110.32 171.558 1112.2 170.118C1114.07 168.649 1116.23 167.764 1118.67 167.465C1122.37 167.011 1125.12 167.897 1126.93 170.123L1127.16 166.785L1134.13 165.93ZM1120.24 186.54C1121.61 186.372 1122.8 185.895 1123.79 185.108C1124.77 184.291 1125.49 183.251 1125.94 181.987C1126.39 180.723 1126.52 179.316 1126.33 177.768C1126.13 176.13 1125.48 174.895 1124.38 174.063C1123.31 173.227 1121.91 172.916 1120.18 173.128C1118.81 173.296 1117.64 173.788 1116.65 174.605C1115.66 175.391 1114.94 176.417 1114.49 177.681C1114.04 178.945 1113.91 180.351 1114.1 181.9C1114.3 183.537 1114.93 184.774 1116 185.61C1117.1 186.442 1118.52 186.752 1120.24 186.54ZM1154.28 163.092C1156.16 162.862 1157.94 163.082 1159.62 163.751C1161.34 164.417 1162.76 165.513 1163.88 167.037C1165.03 168.528 1165.74 170.375 1166.01 172.579C1166.34 175.229 1166.04 177.699 1165.11 179.989C1164.21 182.246 1162.82 184.109 1160.94 185.578C1159.06 187.018 1156.89 187.889 1154.42 188.193C1150.76 188.643 1148.02 187.77 1146.21 185.574L1145.3 197.745L1138.33 198.601L1140.84 165.106L1147.45 164.294L1147.25 166.722C1149.02 164.66 1151.36 163.451 1154.28 163.092ZM1152.91 182.53C1154.28 182.362 1155.46 181.884 1156.45 181.098C1157.44 180.281 1158.15 179.241 1158.6 177.977C1159.05 176.712 1159.18 175.306 1158.99 173.758C1158.79 172.12 1158.14 170.885 1157.04 170.053C1155.97 169.217 1154.57 168.905 1152.85 169.117C1151.51 169.282 1150.34 169.772 1149.35 170.589C1148.36 171.375 1147.64 172.401 1147.19 173.665C1146.74 174.929 1146.61 176.335 1146.8 177.884C1147.01 179.522 1147.64 180.758 1148.71 181.594C1149.78 182.43 1151.18 182.742 1152.91 182.53ZM1190.84 164.77L1182.66 165.773L1181.34 184.525L1174.37 185.38L1175.7 166.629L1167.66 167.616L1168.12 161.756L1191.3 158.91L1190.84 164.77ZM1194.52 151.169L1202.83 150.149L1199.84 171.235L1194.31 171.915L1194.52 151.169ZM1196.84 182.984C1195.65 183.13 1194.63 182.893 1193.76 182.274C1192.9 181.624 1192.4 180.778 1192.27 179.736C1192.12 178.486 1192.43 177.405 1193.19 176.495C1193.96 175.585 1194.98 175.052 1196.26 174.895C1197.42 174.752 1198.43 174.99 1199.29 175.61C1200.15 176.2 1200.65 177.016 1200.77 178.058C1200.92 179.279 1200.62 180.374 1199.86 181.344C1199.1 182.283 1198.09 182.83 1196.84 182.984Z" fill="#12D3C0"/>
<path d="M1269.28 173.727L1265.44 142.462L1290.68 139.363L1291.38 145.125L1273.34 147.34L1274.13 153.772L1282.79 152.708C1286.58 152.244 1289.55 152.68 1291.71 154.017C1293.89 155.35 1295.17 157.52 1295.54 160.528C1295.92 163.625 1295.12 166.172 1293.13 168.169C1291.13 170.167 1288.13 171.412 1284.11 171.906L1269.28 173.727ZM1275.81 167.484L1283.05 166.596C1284.9 166.369 1286.27 165.838 1287.16 165.003C1288.05 164.138 1288.41 163.005 1288.24 161.606C1287.9 158.866 1285.83 157.731 1282.02 158.199L1274.78 159.087L1275.81 167.484ZM1326.46 166.706L1323.51 142.676L1330.44 141.826L1333.39 165.855L1326.46 166.706ZM1312.35 151.844C1315.51 151.487 1317.97 151.911 1319.72 153.116C1321.49 154.289 1322.54 156.14 1322.85 158.671C1323.17 161.321 1322.52 163.502 1320.89 165.214C1319.25 166.896 1316.76 167.942 1313.43 168.352L1301.72 169.744L1298.77 145.714L1305.69 144.864L1306.64 152.546L1312.35 151.844ZM1312.19 163.471C1313.54 163.336 1314.53 162.927 1315.17 162.244C1315.81 161.56 1316.06 160.623 1315.91 159.432C1315.77 158.241 1315.31 157.436 1314.53 157.018C1313.75 156.57 1312.69 156.413 1311.34 156.548L1307.18 157.013L1308.04 163.981L1312.19 163.471ZM1351.58 163.984C1348.99 164.302 1346.62 164.065 1344.47 163.271C1342.31 162.448 1340.54 161.169 1339.14 159.436C1337.78 157.699 1336.96 155.639 1336.66 153.257C1336.37 150.845 1336.67 148.647 1337.58 146.662C1338.51 144.643 1339.92 142.989 1341.82 141.698C1343.71 140.377 1345.95 139.558 1348.54 139.24C1351.07 138.929 1353.34 139.195 1355.35 140.036C1357.35 140.848 1358.92 142.182 1360.06 144.037L1355.01 147.604C1354.25 146.549 1353.35 145.813 1352.34 145.394C1351.35 144.971 1350.3 144.827 1349.2 144.963C1348.01 145.109 1346.97 145.508 1346.08 146.161C1345.2 146.814 1344.53 147.667 1344.09 148.719C1343.67 149.767 1343.55 150.991 1343.72 152.391C1343.89 153.79 1344.31 154.948 1344.96 155.865C1345.65 156.778 1346.5 157.445 1347.52 157.863C1348.54 158.282 1349.64 158.419 1350.83 158.273C1351.94 158.137 1352.92 157.76 1353.78 157.14C1354.67 156.487 1355.35 155.542 1355.83 154.304L1361.6 156.588C1360.94 158.633 1359.74 160.307 1358 161.609C1356.25 162.882 1354.11 163.673 1351.58 163.984ZM1371.63 161.16L1369.18 141.24L1370.94 142.656L1361.25 143.846L1360.55 138.129L1383.73 135.282L1384.43 140.999L1374.74 142.189L1376.11 140.39L1378.55 160.31L1371.63 161.16ZM1404.6 157.475C1402.57 157.723 1400.75 157.494 1399.12 156.787C1397.49 156.08 1396.13 154.872 1395.05 153.162C1393.98 151.418 1393.28 149.146 1392.94 146.347C1392.59 143.519 1392.71 141.147 1393.29 139.232C1393.87 137.317 1394.87 135.819 1396.27 134.739C1397.68 133.66 1399.44 132.99 1401.56 132.73C1403.82 132.453 1405.91 132.725 1407.83 133.548C1409.77 134.337 1411.37 135.591 1412.64 137.309C1413.94 139.024 1414.74 141.132 1415.05 143.633C1415.36 146.164 1415.09 148.418 1414.25 150.396C1413.43 152.37 1412.18 153.975 1410.49 155.21C1408.82 156.442 1406.86 157.197 1404.6 157.475ZM1391.41 167.526L1387.4 134.832L1394.05 134.015L1394.66 138.928L1395.4 146.09L1396.72 153.137L1398.38 166.671L1391.41 167.526ZM1402.69 151.906C1403.85 151.763 1404.84 151.369 1405.67 150.723C1406.53 150.074 1407.17 149.225 1407.58 148.177C1408.02 147.095 1408.16 145.869 1407.99 144.499C1407.82 143.1 1407.39 141.943 1406.7 141.03C1406.05 140.114 1405.22 139.444 1404.24 139.021C1403.28 138.595 1402.22 138.453 1401.05 138.596C1399.89 138.738 1398.88 139.134 1398.03 139.783C1397.17 140.433 1396.53 141.282 1396.12 142.33C1395.7 143.379 1395.58 144.602 1395.75 146.002C1395.92 147.372 1396.34 148.53 1397 149.476C1397.65 150.393 1398.48 151.063 1399.46 151.486C1400.45 151.908 1401.53 152.048 1402.69 151.906ZM1446.15 152.01L1443.2 127.98L1450.12 127.13L1453.07 151.16L1446.15 152.01ZM1432.04 137.149C1435.2 136.791 1437.65 137.215 1439.4 138.421C1441.18 139.593 1442.22 141.445 1442.53 143.976C1442.86 146.626 1442.21 148.807 1440.57 150.518C1438.94 152.201 1436.45 153.246 1433.11 153.656L1421.41 155.048L1418.46 131.018L1425.38 130.168L1426.32 137.851L1432.04 137.149ZM1431.88 148.775C1433.22 148.64 1434.22 148.231 1434.86 147.548C1435.5 146.865 1435.75 145.927 1435.6 144.736C1435.45 143.545 1434.99 142.74 1434.22 142.322C1433.44 141.874 1432.37 141.717 1431.03 141.852L1426.87 142.317L1427.73 149.285L1431.88 148.775ZM1459.79 150.335L1456.84 126.306L1463.76 125.455L1465.52 139.748L1475.47 124.019L1481.85 123.234L1484.8 147.264L1477.88 148.114L1476.12 133.821L1466.22 149.545L1459.79 150.335ZM1468.58 122.234C1465.96 122.556 1463.93 122.232 1462.48 121.261C1461.02 120.261 1460.14 118.601 1459.83 116.282L1464.38 115.723C1464.54 116.731 1464.92 117.501 1465.53 118.03C1466.14 118.56 1466.99 118.757 1468.09 118.622C1469.16 118.49 1469.95 118.092 1470.44 117.427C1470.96 116.758 1471.16 115.918 1471.04 114.905L1475.68 114.335C1475.97 116.658 1475.51 118.482 1474.31 119.808C1473.11 121.104 1471.2 121.913 1468.58 122.234ZM1515.63 143.842C1513.04 144.16 1510.67 143.922 1508.51 143.129C1506.36 142.305 1504.58 141.027 1503.19 139.294C1501.83 137.557 1501 135.497 1500.71 133.115C1500.41 130.703 1500.72 128.505 1501.62 126.52C1502.55 124.501 1503.97 122.846 1505.86 121.556C1507.76 120.235 1510 119.416 1512.59 119.098C1515.12 118.787 1517.39 119.052 1519.4 119.894C1521.4 120.706 1522.97 122.039 1524.1 123.895L1519.06 127.462C1518.29 126.407 1517.4 125.67 1516.38 125.251C1515.39 124.829 1514.35 124.685 1513.25 124.82C1512.06 124.966 1511.02 125.366 1510.13 126.019C1509.24 126.672 1508.58 127.525 1508.13 128.577C1507.72 129.625 1507.59 130.849 1507.77 132.248C1507.94 133.648 1508.35 134.806 1509.01 135.723C1509.7 136.636 1510.55 137.302 1511.57 137.721C1512.59 138.14 1513.69 138.276 1514.88 138.13C1515.98 137.995 1516.96 137.618 1517.83 136.998C1518.71 136.345 1519.4 135.4 1519.88 134.161L1525.65 136.446C1524.99 138.491 1523.79 140.165 1522.05 141.467C1520.3 142.739 1518.16 143.531 1515.63 143.842ZM1535.67 141.018L1533.23 121.097L1534.99 122.513L1525.3 123.703L1524.6 117.986L1547.78 115.14L1548.48 120.857L1538.79 122.047L1540.15 120.247L1542.6 140.168L1535.67 141.018ZM1568.82 136.948L1568.25 132.258L1567.67 131.285L1566.64 122.888C1566.46 121.4 1565.86 120.295 1564.83 119.575C1563.84 118.851 1562.4 118.604 1560.52 118.834C1559.24 118.991 1558 119.355 1556.8 119.925C1555.63 120.462 1554.65 121.126 1553.87 121.917L1550.78 117.356C1551.97 116.272 1553.46 115.364 1555.25 114.631C1557.03 113.898 1558.88 113.414 1560.78 113.18C1564.44 112.731 1567.39 113.245 1569.63 114.723C1571.87 116.202 1573.21 118.772 1573.66 122.435L1575.34 136.147L1568.82 136.948ZM1561.54 138.204C1559.67 138.435 1558.02 138.319 1556.6 137.859C1555.18 137.368 1554.05 136.616 1553.2 135.602C1552.35 134.588 1551.84 133.396 1551.67 132.026C1551.49 130.597 1551.68 129.304 1552.24 128.148C1552.82 126.989 1553.83 126.018 1555.28 125.236C1556.72 124.424 1558.66 123.868 1561.1 123.568L1567.49 122.784L1567.99 126.849L1562.36 127.54C1560.73 127.741 1559.63 128.148 1559.07 128.76C1558.54 129.37 1558.32 130.076 1558.42 130.88C1558.53 131.773 1558.96 132.446 1559.71 132.898C1560.49 133.316 1561.49 133.451 1562.71 133.301C1563.87 133.158 1564.88 132.762 1565.74 132.113C1566.59 131.434 1567.16 130.533 1567.44 129.409L1568.91 132.494C1568.59 134.104 1567.82 135.394 1566.57 136.362C1565.33 137.331 1563.66 137.945 1561.54 138.204ZM1595.6 134.023C1593.57 134.271 1591.75 134.042 1590.12 133.335C1588.49 132.628 1587.13 131.42 1586.05 129.709C1584.99 127.966 1584.28 125.694 1583.94 122.895C1583.59 120.067 1583.71 117.695 1584.29 115.78C1584.87 113.865 1585.87 112.367 1587.28 111.287C1588.69 110.208 1590.45 109.538 1592.56 109.278C1594.82 109.001 1596.91 109.273 1598.83 110.096C1600.77 110.885 1602.37 112.139 1603.64 113.857C1604.94 115.572 1605.74 117.679 1606.05 120.181C1606.36 122.712 1606.09 124.966 1605.25 126.944C1604.43 128.918 1603.18 130.523 1601.49 131.758C1599.82 132.99 1597.86 133.745 1595.6 134.023ZM1582.42 144.074L1578.4 111.38L1585.06 110.562L1585.66 115.476L1586.4 122.638L1587.72 129.685L1589.38 143.219L1582.42 144.074ZM1593.69 128.454C1594.85 128.311 1595.85 127.917 1596.67 127.271C1597.53 126.622 1598.17 125.773 1598.58 124.725C1599.02 123.643 1599.16 122.417 1598.99 121.047C1598.82 119.648 1598.39 118.491 1597.71 117.578C1597.05 116.661 1596.23 115.992 1595.24 115.569C1594.28 115.143 1593.22 115.001 1592.06 115.144C1590.9 115.286 1589.89 115.682 1589.03 116.331C1588.17 116.981 1587.54 117.83 1587.12 118.878C1586.71 119.926 1586.58 121.15 1586.76 122.55C1586.92 123.92 1587.34 125.078 1588 126.024C1588.65 126.941 1589.48 127.611 1590.47 128.033C1591.46 128.456 1592.53 128.596 1593.69 128.454ZM1616.67 131.072L1614.23 111.152L1615.99 112.568L1606.3 113.758L1605.59 108.041L1628.77 105.195L1629.48 110.912L1619.78 112.102L1621.15 110.302L1623.6 130.222L1616.67 131.072ZM1634.46 117.871L1630.57 97.629L1638.88 96.609L1640 117.191L1634.46 117.871ZM1638.61 128.742C1637.36 128.895 1636.28 128.619 1635.38 127.914C1634.48 127.209 1633.96 126.305 1633.82 125.204C1633.68 124.072 1633.97 123.085 1634.68 122.242C1635.39 121.369 1636.37 120.855 1637.62 120.702C1638.9 120.545 1639.98 120.806 1640.85 121.485C1641.74 122.13 1642.26 123.019 1642.4 124.151C1642.53 125.252 1642.25 126.255 1641.54 127.157C1640.87 128.056 1639.89 128.584 1638.61 128.742Z" fill="white"/>
<path d="M1709.22 87.9729L1734.41 84.8798L1733.91 90.7896L1715.86 93.0052L1715.4 99.5905L1724.11 98.5211C1727.33 98.1262 1729.87 98.5392 1731.75 99.7601C1733.65 100.948 1734.76 102.881 1735.09 105.561C1735.36 107.794 1735 109.803 1734.01 111.587C1733.02 113.341 1731.46 114.787 1729.33 115.925C1727.24 117.059 1724.65 117.814 1721.59 118.191L1706.8 120.006L1709.22 87.9729ZM1721.6 112.749C1723.68 112.493 1725.27 111.86 1726.35 110.85C1727.44 109.84 1727.89 108.561 1727.7 107.013C1727.55 105.822 1727.02 104.995 1726.12 104.531C1725.25 104.064 1723.95 103.937 1722.22 104.149L1714.98 105.037L1714.36 113.637L1721.6 112.749ZM1765.95 88.3522L1772.87 87.5022L1771.04 112.119L1764.07 112.974L1765.95 88.3522ZM1752.77 97.7675C1755.57 97.4238 1757.76 97.7449 1759.33 98.7307C1760.93 99.683 1761.87 101.291 1762.14 103.554C1762.38 105.459 1762.08 107.189 1761.24 108.743C1760.43 110.293 1759.17 111.581 1757.45 112.608C1755.73 113.605 1753.67 114.252 1751.25 114.548L1739.33 116.012L1741.21 91.4351L1748.13 90.585L1747.55 98.4091L1752.77 97.7675ZM1750.65 109.635C1752.17 109.448 1753.34 108.926 1754.18 108.069C1755 107.181 1755.34 106.097 1755.18 104.817C1754.96 103 1753.66 102.238 1751.27 102.531L1747.21 103.03L1746.68 110.123L1750.65 109.635ZM1790.44 110.099C1787.97 110.403 1785.76 110.221 1783.8 109.554C1781.84 108.888 1780.26 107.813 1779.05 106.329C1777.87 104.812 1777.14 102.982 1776.88 100.838C1776.56 98.1875 1776.89 95.7287 1777.88 93.461C1778.87 91.1933 1780.41 89.3119 1782.49 87.8169C1784.57 86.3219 1787.02 85.4025 1789.81 85.0588C1792.37 84.7444 1794.64 85.0098 1796.62 85.8551C1798.63 86.6669 1800.21 87.9839 1801.37 89.8061L1795.83 93.4778C1794.53 91.4321 1792.61 90.5646 1790.07 90.8754C1788.71 91.0436 1787.51 91.5377 1786.49 92.3579C1785.5 93.1446 1784.77 94.1718 1784.29 95.4397C1783.84 96.7039 1783.71 98.0952 1783.89 99.6138C1784.09 101.252 1784.75 102.501 1785.85 103.363C1786.95 104.196 1788.38 104.504 1790.13 104.288C1792.7 103.974 1794.53 102.66 1795.64 100.348L1801.17 102.933C1800.23 104.892 1798.81 106.502 1796.91 107.763C1795.04 109.021 1792.88 109.799 1790.44 110.099ZM1826.18 86.7593L1818.01 87.7629L1816.68 106.514L1809.72 107.37L1811.04 88.6184L1803 89.6055L1803.46 83.7459L1826.64 80.8996L1826.18 86.7593ZM1843.8 78.4301C1845.68 78.1997 1847.46 78.4194 1849.14 79.0892C1850.85 79.7553 1852.27 80.8505 1853.4 82.3749C1854.55 83.8658 1855.26 85.713 1855.53 87.9164C1855.85 90.5665 1855.55 93.0367 1854.63 95.3268C1853.72 97.5835 1852.34 99.4466 1850.46 100.916C1848.58 102.356 1846.41 103.227 1843.94 103.531C1840.27 103.98 1837.54 103.107 1835.73 100.912L1834.82 113.083L1827.85 113.939L1830.36 80.4436L1836.97 79.6319L1836.77 82.0595C1838.54 79.9982 1840.88 78.7884 1843.8 78.4301ZM1842.42 97.8677C1843.79 97.6995 1844.97 97.2221 1845.97 96.4354C1846.95 95.6189 1847.67 94.5786 1848.12 93.3144C1848.57 92.0502 1848.7 90.644 1848.51 89.0956C1848.31 87.4579 1847.66 86.2229 1846.56 85.3907C1845.49 84.5549 1844.09 84.243 1842.36 84.455C1841.02 84.6196 1839.86 85.1101 1838.87 85.9265C1837.88 86.7132 1837.16 87.7387 1836.71 89.0029C1836.26 90.267 1836.13 91.6733 1836.32 93.2217C1836.52 94.8594 1837.16 96.0962 1838.23 96.932C1839.3 97.7679 1840.7 98.0798 1842.42 97.8677ZM1886.24 73.5815L1893.17 72.7315L1891.34 97.3478L1884.37 98.2033L1886.24 73.5815ZM1873.07 82.9968C1875.87 82.6531 1878.06 82.9742 1879.63 83.96C1881.23 84.9123 1882.16 86.52 1882.44 88.783C1882.68 90.6887 1882.38 92.4183 1881.54 93.9719C1880.73 95.5218 1879.47 96.8103 1877.75 97.8373C1876.03 98.8345 1873.96 99.4811 1871.55 99.7773L1859.63 101.242L1861.5 76.6644L1868.43 75.8143L1867.85 83.6384L1873.07 82.9968ZM1870.95 94.8642C1872.47 94.6777 1873.64 94.1556 1874.47 93.2979C1875.3 92.4103 1875.64 91.3264 1875.48 90.046C1875.26 88.2296 1873.95 87.4677 1871.57 87.7602L1867.51 88.2592L1866.97 95.3523L1870.95 94.8642ZM1899.88 71.9068L1906.85 71.0513L1905.65 86.024L1918.37 69.6364L1924.94 68.8302L1923.11 93.4465L1916.1 94.3076L1917.34 79.2846L1904.62 95.717L1898.01 96.5286L1899.88 71.9068ZM1912.51 67.6812C1910.19 67.9664 1908.38 67.7503 1907.08 67.033C1905.78 66.286 1905.03 65.0638 1904.82 63.3666C1904.74 62.7413 1904.73 62.1682 1904.79 61.6474L1909.3 61.0935C1909.29 61.5177 1909.3 61.8042 1909.32 61.9531C1909.41 62.7571 1909.74 63.3513 1910.3 63.7358C1910.87 64.1203 1911.59 64.2577 1912.49 64.148C1914.6 63.8884 1915.77 62.596 1916 60.2709L1920.6 59.706C1920.44 62.0834 1919.68 63.9293 1918.33 65.2436C1917.01 66.5542 1915.07 67.3668 1912.51 67.6812ZM1955.14 89.8765C1952.67 90.1799 1950.46 89.9983 1948.5 89.3317C1946.54 88.6651 1944.96 87.59 1943.75 86.1064C1942.57 84.5893 1941.84 82.7588 1941.58 80.6149C1941.26 77.9648 1941.59 75.506 1942.58 73.2383C1943.57 70.9706 1945.11 69.0892 1947.19 67.5942C1949.27 66.0992 1951.72 65.1798 1954.51 64.8361C1957.08 64.5217 1959.34 64.7871 1961.32 65.6324C1963.33 66.4443 1964.91 67.7612 1966.07 69.5834L1960.54 73.2551C1959.23 71.2094 1957.31 70.3419 1954.78 70.6527C1953.41 70.8209 1952.21 71.315 1951.19 72.1352C1950.2 72.9219 1949.47 73.9491 1948.99 75.217C1948.54 76.4812 1948.41 77.8725 1948.59 79.3911C1948.8 81.0288 1949.45 82.2787 1950.55 83.1406C1951.65 83.9728 1953.08 84.2811 1954.84 84.0654C1957.4 83.7509 1959.23 82.4377 1960.34 80.1256L1965.87 82.7108C1964.93 84.6697 1963.51 86.2797 1961.61 87.5407C1959.74 88.7981 1957.58 89.5767 1955.14 89.8765ZM1990.88 66.5366L1982.71 67.5402L1981.38 86.2914L1974.42 87.1469L1975.74 68.3957L1967.7 69.3829L1968.16 63.5232L1991.34 60.6769L1990.88 66.5366ZM2018.49 57.3443L2016.66 81.9606L2010.05 82.7723L2010.2 80.3502C2008.43 82.4115 2006.08 83.6213 2003.17 83.9796C2001.29 84.2099 1999.51 83.9902 1997.83 83.3205C1996.14 82.6508 1994.73 81.5704 1993.58 80.0795C1992.45 78.5551 1991.75 76.6912 1991.48 74.4878C1991.16 71.8377 1991.45 69.3843 1992.35 67.1276C1993.28 64.8374 1994.68 62.9725 1996.56 61.5328C1998.43 60.0634 2000.59 59.1788 2003.03 58.879C2006.72 58.4256 2009.48 59.3117 2011.29 61.5371L2011.52 58.1998L2018.49 57.3443ZM2004.6 77.9546C2005.97 77.7865 2007.15 77.309 2008.15 76.5223C2009.13 75.7059 2009.85 74.6655 2010.3 73.4013C2010.75 72.1372 2010.88 70.7309 2010.69 69.1825C2010.49 67.5448 2009.84 66.3099 2008.74 65.4777C2007.67 64.6418 2006.27 64.3299 2004.54 64.542C2003.17 64.7102 2001.99 65.2025 2001.01 66.019C2000.02 66.8057 1999.3 67.8311 1998.85 69.0953C1998.4 70.3595 1998.27 71.7657 1998.46 73.3141C1998.66 74.9518 1999.29 76.1886 2000.36 77.0244C2001.46 77.8566 2002.88 78.1667 2004.6 77.9546ZM2038.64 54.5067C2040.52 54.2763 2042.3 54.496 2043.98 55.1658C2045.7 55.8319 2047.11 56.9271 2048.24 58.4515C2049.39 59.9424 2050.1 61.7896 2050.37 63.993C2050.7 66.6431 2050.39 69.1133 2049.47 71.4034C2048.56 73.6601 2047.18 75.5232 2045.3 76.9926C2043.42 78.4323 2041.25 79.3039 2038.78 79.6073C2035.11 80.057 2032.38 79.184 2030.57 76.9884L2029.66 89.1598L2022.69 90.0153L2025.2 56.5202L2031.81 55.7085L2031.61 58.1361C2033.38 56.0748 2035.72 54.865 2038.64 54.5067ZM2037.26 73.9443C2038.63 73.7761 2039.82 73.2987 2040.81 72.512C2041.79 71.6955 2042.51 70.6552 2042.96 69.391C2043.41 68.1268 2043.54 66.7205 2043.35 65.1722C2043.15 63.5345 2042.5 62.2995 2041.4 61.4673C2040.33 60.6315 2038.93 60.3196 2037.2 60.5316C2035.87 60.6962 2034.7 61.1867 2033.71 62.0031C2032.72 62.7898 2032 63.8153 2031.55 65.0795C2031.1 66.3436 2030.97 67.7499 2031.16 69.2983C2031.36 70.936 2032 72.1728 2033.07 73.0086C2034.14 73.8445 2035.54 74.1564 2037.26 73.9443ZM2075.2 56.1842L2067.02 57.1878L2065.7 75.939L2058.73 76.7946L2060.06 58.0434L2052.02 59.0305L2052.47 53.1708L2075.66 50.3246L2075.2 56.1842ZM2078.88 42.5835L2087.19 41.5635L2084.2 62.6497L2078.67 63.3298L2078.88 42.5835ZM2081.2 74.398C2080.01 74.5442 2078.99 74.3076 2078.12 73.688C2077.26 73.0387 2076.76 72.1929 2076.63 71.1507C2076.48 69.9001 2076.79 68.8198 2077.55 67.9098C2078.31 66.9998 2079.34 66.4662 2080.62 66.309C2081.78 66.1664 2082.79 66.4049 2083.65 67.0245C2084.51 67.6143 2085 68.4303 2085.13 69.4725C2085.28 70.6933 2084.98 71.7885 2084.22 72.758C2083.46 73.6978 2082.45 74.2444 2081.2 74.398Z" fill="#5D12CE"/>
</g>
<defs>
<filter id="filter0_b_1_188" x="-672.292" y="-149.718" width="2927.02" height="732.047" filterUnits="userSpaceOnUse" color-interpolation-filters="sRGB">
<feFlood flood-opacity="0" result="BackgroundImageFix"/>
<feGaussianBlur in="BackgroundImageFix" stdDeviation="75"/>
<feComposite in2="SourceAlpha" operator="in" result="effect1_backgroundBlur_1_188"/>
<feBlend mode="normal" in="SourceGraphic" in2="effect1_backgroundBlur_1_188" result="shape"/>
</filter>
</defs>
</svg>
