<svg width="106" height="105" viewBox="0 0 106 105" fill="none" xmlns="http://www.w3.org/2000/svg">
<g opacity="0.3">
<path d="M94.245 11.2801C92.0575 9.04443 88.82 8.21756 85.8012 9.09256L15.4075 29.4319C12.2225 30.3157 9.96496 32.8401 9.35684 36.0426C8.73559 39.3063 10.9056 43.4538 13.7406 45.1863L35.7512 58.6263C38.0087 60.0088 40.9225 59.6632 42.7906 57.7907L67.995 32.5863C69.2637 31.2694 71.3637 31.2694 72.6325 32.5863C73.9012 33.8507 73.9012 35.9113 72.6325 37.2238L47.3843 62.4282C45.5118 64.3007 45.1618 67.2057 46.54 69.4676L59.9887 91.5613C61.5637 94.1819 64.2762 95.6738 67.2512 95.6738C67.6012 95.6738 67.995 95.6738 68.345 95.6257C71.7575 95.1925 74.47 92.8694 75.4762 89.5882L96.345 19.7238C97.2637 16.7488 96.4325 13.5113 94.245 11.2801Z" fill="#5D12CE"/>
<path fill-rule="evenodd" clip-rule="evenodd" d="M13.6713 73.5339C12.8313 73.5339 11.9913 73.2145 11.3525 72.5714C10.0706 71.2895 10.0706 69.2158 11.3525 67.9339L17.3244 61.9576C18.6063 60.6801 20.6844 60.6801 21.9663 61.9576C23.2438 63.2395 23.2438 65.3176 21.9663 66.5995L15.99 72.5714C15.3513 73.2145 14.5113 73.5339 13.6713 73.5339ZM30.1265 78.7506C29.2865 78.7506 28.4465 78.4313 27.8078 77.7881C26.5259 76.5063 26.5259 74.4325 27.8078 73.1506L33.7796 67.1744C35.0615 65.8969 37.1396 65.8969 38.4215 67.1744C39.699 68.4563 39.699 70.5344 38.4215 71.8163L32.4453 77.7881C31.8065 78.4313 30.9665 78.7506 30.1265 78.7506ZM31.2365 94.3606C31.8752 95.0038 32.7152 95.3231 33.5552 95.3231C34.3952 95.3231 35.2352 95.0038 35.874 94.3606L41.8502 88.3888C43.1277 87.1069 43.1277 85.0288 41.8502 83.7469C40.5683 82.4694 38.4902 82.4694 37.2083 83.7469L31.2365 89.7231C29.9546 91.005 29.9546 93.0788 31.2365 94.3606Z" fill="#5D12CE"/>
</g>
</svg>
