<svg width="88" height="79" viewBox="0 0 88 79" fill="none" xmlns="http://www.w3.org/2000/svg">
<path fill-rule="evenodd" clip-rule="evenodd" d="M69.2389 23.6704H87.75C87.75 8.8076 78.8444 0.125 63.7556 0.125H24.2444C9.15556 0.125 0.25 8.8076 0.25 23.4808V55.5192C0.25 70.1924 9.15556 78.875 24.2444 78.875H63.7556C78.8444 78.875 87.75 70.1924 87.75 55.5192V54.1542H69.2389C60.6478 54.1542 53.6833 47.3642 53.6833 38.9881C53.6833 30.6121 60.6478 23.822 69.2389 23.822V23.6704ZM69.2389 30.1918H84.4833C86.2875 30.1918 87.75 31.6177 87.75 33.3767V44.4479C87.729 46.1984 86.2787 47.6124 84.4833 47.6328H69.5889C65.2397 47.6899 61.4365 44.7866 60.45 40.6564C59.956 38.0925 60.6495 35.4468 62.3447 33.4284C64.0399 31.41 66.5634 30.2253 69.2389 30.1918ZM69.9 41.8318H71.3389C73.186 41.8318 74.6833 40.3719 74.6833 38.5711C74.6833 36.7702 73.186 35.3104 71.3389 35.3104H69.9C69.0166 35.3002 68.1658 35.6353 67.5374 36.2408C66.9091 36.8463 66.5555 37.6718 66.5556 38.5332C66.5554 40.3402 68.0466 41.811 69.9 41.8318ZM20.9778 23.6704H45.6722C47.5193 23.6704 49.0167 22.2105 49.0167 20.4097C49.0167 18.6088 47.5193 17.149 45.6722 17.149H20.9778C19.1458 17.1488 17.6546 18.5857 17.6333 20.3717C17.6332 22.1788 19.1244 23.6496 20.9778 23.6704Z" fill="#5D12CE"/>
</svg>
