<svg width="150" height="150" viewBox="0 0 150 150" fill="none" xmlns="http://www.w3.org/2000/svg">
<rect width="150" height="150" rx="75" fill="#0A0A1A"/>
<path d="M96.4398 63.2266V68.1987C100.099 68.444 103 71.4625 103 75.1402V84.0405C103 87.7181 100.099 90.7367 96.4398 90.982H92.6975C89.0387 90.7367 86.1373 87.7181 86.1373 84.0405V75.1402C86.1373 71.4626 89.0387 68.444 92.6975 68.1987V63.2266C92.6975 55.2161 83.1042 48.6991 75 48.6991C66.8958 48.6991 57.3025 55.2161 57.3026 63.2266V68.1987C60.9614 68.444 63.8628 71.4626 63.8628 75.1402V84.0405C63.8628 87.878 60.7041 91 56.8217 91H54.041C50.1586 91 47 87.878 47 84.0405V75.1402C47 71.4626 49.9014 68.444 53.5601 68.1987V63.2266C53.5601 53.1764 64.8323 45 75 45C85.1677 45 96.4398 53.1764 96.4398 63.2266Z" fill="#12D3C0"/>
<path d="M93.1951 96.3801V93H97.0001V96.3801C97.0001 101.133 92.9942 105 88.0703 105H80.9026C79.852 105 79.0001 104.178 79.0001 103.164C79.0001 102.149 79.852 101.327 80.9026 101.327H88.0703C90.8962 101.327 93.1951 99.1079 93.1951 96.3801Z" fill="#12D3C0"/>
<rect x="7" y="7" width="36" height="36" rx="18" fill="#12D3C0"/>
<path d="M19.602 31.716C18.558 31.716 17.628 31.458 16.812 30.942C15.996 30.426 15.354 29.682 14.886 28.71C14.43 27.726 14.202 26.556 14.202 25.2C14.202 23.844 14.43 22.68 14.886 21.708C15.354 20.724 15.996 19.974 16.812 19.458C17.628 18.942 18.558 18.684 19.602 18.684C20.646 18.684 21.576 18.942 22.392 19.458C23.208 19.974 23.844 20.724 24.3 21.708C24.768 22.68 25.002 23.844 25.002 25.2C25.002 26.556 24.768 27.726 24.3 28.71C23.844 29.682 23.208 30.426 22.392 30.942C21.576 31.458 20.646 31.716 19.602 31.716ZM19.602 29.25C20.37 29.25 20.97 28.92 21.402 28.26C21.846 27.6 22.068 26.58 22.068 25.2C22.068 23.82 21.846 22.8 21.402 22.14C20.97 21.48 20.37 21.15 19.602 21.15C18.846 21.15 18.246 21.48 17.802 22.14C17.37 22.8 17.154 23.82 17.154 25.2C17.154 26.58 17.37 27.6 17.802 28.26C18.246 28.92 18.846 29.25 19.602 29.25ZM32.129 24.03C33.233 24.21 34.079 24.624 34.667 25.272C35.255 25.908 35.549 26.7 35.549 27.648C35.549 28.38 35.357 29.058 34.973 29.682C34.589 30.294 34.001 30.786 33.209 31.158C32.429 31.53 31.469 31.716 30.329 31.716C29.441 31.716 28.565 31.602 27.701 31.374C26.849 31.134 26.123 30.798 25.523 30.366L26.657 28.134C27.137 28.494 27.689 28.776 28.313 28.98C28.949 29.172 29.597 29.268 30.257 29.268C30.989 29.268 31.565 29.13 31.985 28.854C32.405 28.566 32.615 28.164 32.615 27.648C32.615 26.616 31.829 26.1 30.257 26.1H28.925V24.174L31.517 21.24H26.153V18.9H34.973V20.79L32.129 24.03Z" fill="#02020E"/>
</svg>
