<svg width="16" height="21" viewBox="0 0 16 21" fill="none" xmlns="http://www.w3.org/2000/svg">
<path d="M3.79462 4.9043V2.99651C3.79462 2.1698 3.99544 1.54712 4.39707 1.12847C4.80391 0.709815 5.41157 0.500488 6.22005 0.500488H9.21663C9.63912 0.500488 10.0173 0.561432 10.3511 0.683318C10.6849 0.799905 10.9901 1.00393 11.2665 1.2954L15.2176 5.3733C15.5097 5.68067 15.7131 6.00393 15.8279 6.3431C15.9426 6.68226 16 7.09561 16 7.58316V14.0378C16 14.8646 15.7966 15.4872 15.3897 15.9059C14.9881 16.3245 14.383 16.5339 13.5746 16.5339H11.9628V15.2541H13.5042C13.911 15.2541 14.2187 15.1481 14.4274 14.9361C14.636 14.7188 14.7403 14.4115 14.7403 14.014V7.2175H11.0787C10.6302 7.2175 10.2937 7.10621 10.0694 6.88364C9.85037 6.66106 9.74083 6.31925 9.74083 5.8582V1.7803H6.28264C5.87579 1.7803 5.56805 1.88894 5.35941 2.10621C5.15599 2.31819 5.05428 2.6229 5.05428 3.02036V4.9043H3.79462ZM10.8753 5.66742C10.8753 5.8105 10.904 5.91384 10.9614 5.97744C11.024 6.03573 11.1231 6.06488 11.2587 6.06488H14.4117L10.8753 2.40828V5.66742ZM0 18.0045V6.96313C0 6.13642 0.200815 5.51374 0.602445 5.09508C1.00929 4.67643 1.61695 4.4671 2.42543 4.4671H5.18729C5.62543 4.4671 5.98794 4.5148 6.27482 4.61019C6.5617 4.70558 6.85379 4.9096 7.1511 5.22227L11.4621 9.68173C11.6707 9.899 11.8272 10.1057 11.9315 10.3018C12.0411 10.4925 12.1141 10.7045 12.1506 10.9377C12.1871 11.1709 12.2054 11.457 12.2054 11.7962V18.0045C12.2054 18.8312 12.002 19.4539 11.5951 19.8725C11.1935 20.2912 10.5884 20.5005 9.77995 20.5005H2.42543C1.61695 20.5005 1.00929 20.2912 0.602445 19.8725C0.200815 19.4592 0 18.8365 0 18.0045ZM1.25966 17.9806C1.25966 18.3781 1.36137 18.6828 1.56479 18.8948C1.77343 19.112 2.07857 19.2207 2.4802 19.2207H9.71736C10.119 19.2207 10.4241 19.112 10.6328 18.8948C10.8414 18.6828 10.9457 18.3781 10.9457 17.9806V11.8598H6.52518C6.0401 11.8598 5.67237 11.7353 5.422 11.4862C5.17685 11.2371 5.05428 10.8608 5.05428 10.3574V5.74691H2.48802C2.08117 5.74691 1.77343 5.85555 1.56479 6.07283C1.36137 6.2848 1.25966 6.58687 1.25966 6.97903V17.9806ZM6.67384 10.6595H10.7032L6.2357 6.04103V10.2143C6.2357 10.3733 6.2696 10.4872 6.33741 10.5561C6.40522 10.625 6.51736 10.6595 6.67384 10.6595Z" fill="#12D3C0"/>
</svg>
