<svg width="88" height="89" viewBox="0 0 88 89" fill="none" xmlns="http://www.w3.org/2000/svg">
<path fill-rule="evenodd" clip-rule="evenodd" d="M65.9212 55.8803C67.7324 55.8803 69.2024 54.4103 69.2024 52.5991V44.4966C69.2024 42.6853 67.7324 41.2153 65.9212 41.2153H41.0187C39.6012 36.5472 35.3049 33.1172 30.1774 33.1172C23.9037 33.1172 18.798 38.2228 18.798 44.4966C18.798 50.7747 23.9037 55.8803 30.1774 55.8803C35.3049 55.8803 39.6012 52.4503 41.0187 47.7778H50.2587V52.5991C50.2587 54.4103 51.7287 55.8803 53.5399 55.8803C55.3512 55.8803 56.8212 54.4103 56.8212 52.5991V47.7778H62.6399V52.5991C62.6399 54.4103 64.1099 55.8803 65.9212 55.8803ZM25.0368 0.746582H62.9637C77.7862 0.746582 87.748 11.1503 87.748 26.6335V62.3641C87.748 77.8472 77.7862 88.2466 62.9593 88.2466H25.0368C10.2099 88.2466 0.248047 77.8472 0.248047 62.3641V26.6335C0.248047 11.1503 10.2099 0.746582 25.0368 0.746582ZM25.3566 44.5005C25.3566 41.8405 27.5222 39.6793 30.1779 39.6793C32.8335 39.6793 34.9991 41.8405 34.9991 44.5005C34.9991 47.1561 32.8335 49.3174 30.1779 49.3174C27.5222 49.3174 25.3566 47.1561 25.3566 44.5005Z" fill="#5D12CE"/>
</svg>
